<svg id="svg" version="1.1" xmlns="http://www.w3.org/2000/svg" xmlns:xlink="http://www.w3.org/1999/xlink" width="400" height="325.4237288135593" viewBox="0, 0, 400,325.4237288135593"><g id="svgg"><path id="path0" d="M111.441 11.472 C 104.401 12.204,100.281 12.846,96.893 13.739 C 41.760 28.268,14.155 86.990,38.947 137.006 C 43.306 145.800,42.455 144.708,74.592 182.761 C 83.129 192.870,110.641 225.491,115.242 230.960 C 118.566 234.911,133.172 252.236,134.510 253.814 C 138.425 258.432,142.676 263.471,144.758 265.960 C 146.186 267.669,148.554 270.474,150.020 272.192 C 151.485 273.911,153.192 275.934,153.814 276.688 C 154.435 277.442,156.469 279.857,158.333 282.056 C 160.198 284.254,162.232 286.674,162.853 287.432 C 173.604 300.556,184.536 308.860,192.712 310.115 C 199.391 311.140,209.534 305.320,219.669 294.649 C 222.039 292.154,223.680 290.251,232.345 279.955 C 235.141 276.632,238.256 272.940,239.266 271.750 C 240.275 270.561,243.708 266.493,246.893 262.712 C 251.889 256.780,253.509 254.863,257.164 250.559 C 257.496 250.168,258.720 248.706,259.883 247.311 C 261.046 245.916,262.762 243.878,263.697 242.783 C 264.631 241.688,265.968 240.107,266.667 239.270 C 267.366 238.432,268.810 236.722,269.876 235.469 C 270.941 234.217,272.086 232.872,272.418 232.480 C 272.751 232.089,273.974 230.627,275.137 229.232 C 276.300 227.836,278.016 225.799,278.951 224.704 C 279.885 223.609,281.222 222.028,281.921 221.191 C 282.620 220.353,284.018 218.696,285.028 217.508 C 286.038 216.320,288.072 213.910,289.548 212.153 C 291.024 210.396,292.359 208.817,292.514 208.646 C 292.669 208.474,293.750 207.189,294.915 205.791 C 296.080 204.393,297.097 203.185,297.175 203.107 C 297.253 203.030,298.271 201.822,299.436 200.424 C 300.601 199.025,301.681 197.741,301.836 197.569 C 301.992 197.397,303.326 195.819,304.802 194.062 C 306.278 192.305,308.312 189.895,309.322 188.707 C 310.332 187.519,311.730 185.864,312.429 185.028 C 313.129 184.192,314.145 182.985,314.689 182.345 C 315.233 181.704,316.250 180.495,316.949 179.657 C 317.648 178.819,318.985 177.238,319.919 176.143 C 320.854 175.048,322.570 173.011,323.733 171.616 C 324.896 170.221,326.120 168.759,326.452 168.367 C 330.097 164.076,331.226 162.749,331.744 162.147 C 332.078 161.758,334.317 159.089,336.720 156.215 C 339.122 153.340,341.169 150.925,341.269 150.847 C 343.080 149.436,349.236 138.950,352.047 132.486 C 354.104 127.759,356.140 121.408,357.210 116.384 C 358.971 108.116,359.432 93.472,358.177 85.670 C 349.952 34.555,299.845 1.348,250.282 14.167 C 227.586 20.038,205.548 37.091,195.468 56.584 C 194.234 58.971,194.206 58.965,192.533 56.001 C 180.019 33.828,157.747 17.648,133.192 12.892 C 127.307 11.752,115.902 11.008,111.441 11.472 M125.706 21.738 C 130.155 22.345,131.853 22.609,132.910 22.856 C 137.071 23.828,138.375 24.183,141.525 25.203 C 157.213 30.283,171.091 40.943,180.548 55.175 C 181.458 56.546,182.203 57.711,182.203 57.765 C 182.203 57.819,182.794 58.859,183.517 60.076 C 185.068 62.689,188.047 69.096,189.010 71.887 C 191.269 78.440,197.086 78.178,199.578 71.411 C 208.091 48.290,228.542 29.484,251.130 24.005 C 253.221 23.498,258.478 22.403,260.593 22.035 C 272.258 20.003,291.174 22.391,302.542 27.331 C 314.799 32.658,323.575 39.264,332.436 49.834 C 336.355 54.509,340.901 62.378,343.628 69.209 C 343.907 69.908,344.248 70.734,344.385 71.045 C 350.580 85.090,350.591 110.002,344.409 125.141 C 344.250 125.530,343.841 126.547,343.500 127.401 C 342.817 129.114,340.225 134.377,339.062 136.413 C 336.862 140.267,333.937 144.086,325.845 153.672 C 320.926 159.499,314.720 166.858,312.053 170.027 C 305.795 177.461,297.745 187.000,296.055 188.983 C 295.327 189.838,290.237 195.876,284.742 202.401 C 279.248 208.927,273.785 215.410,272.601 216.808 C 271.417 218.206,267.984 222.274,264.972 225.847 C 261.959 229.421,258.503 233.520,257.290 234.958 C 256.077 236.395,254.094 238.746,252.883 240.184 C 251.672 241.621,249.231 244.513,247.458 246.610 C 245.685 248.708,243.243 251.600,242.032 253.037 C 240.821 254.474,238.839 256.826,237.627 258.263 C 236.414 259.700,234.244 262.274,232.803 263.983 C 231.362 265.692,228.574 268.997,226.608 271.328 C 224.641 273.658,222.776 275.872,222.462 276.248 C 222.149 276.624,221.128 277.831,220.194 278.932 C 219.259 280.032,217.544 282.076,216.382 283.475 C 208.800 292.599,198.897 300.133,194.492 300.129 C 189.988 300.125,180.277 292.736,172.419 283.333 C 171.186 281.857,169.106 279.379,167.797 277.825 C 166.488 276.271,164.400 273.792,163.157 272.316 C 161.914 270.840,159.932 268.489,158.752 267.090 C 157.572 265.692,154.142 261.624,151.130 258.051 C 148.118 254.477,144.687 250.410,143.505 249.011 C 142.324 247.613,140.283 245.193,138.970 243.633 C 137.656 242.073,134.612 238.462,132.203 235.607 C 124.236 226.162,119.691 220.774,114.548 214.672 C 111.751 211.355,107.261 206.029,104.569 202.837 C 101.877 199.645,98.509 195.647,97.083 193.951 C 95.658 192.255,93.284 189.448,91.808 187.712 C 90.332 185.976,87.917 183.116,86.441 181.355 C 84.144 178.617,82.587 176.774,79.277 172.876 C 78.944 172.484,77.721 171.022,76.558 169.627 C 75.395 168.232,73.679 166.195,72.744 165.100 C 71.810 164.005,70.473 162.424,69.774 161.586 C 69.075 160.748,67.677 159.091,66.667 157.903 C 65.657 156.715,63.623 154.301,62.147 152.539 C 60.671 150.776,58.573 148.295,57.486 147.026 C 54.651 143.717,54.485 143.512,53.375 141.949 C 48.678 135.336,44.285 125.882,42.222 117.951 C 31.898 78.243,53.773 37.760,92.373 25.144 C 94.473 24.457,96.076 24.033,100.989 22.861 C 102.017 22.616,103.422 22.393,107.910 21.762 C 110.097 21.454,123.495 21.436,125.706 21.738 M136.900 54.111 C 126.745 56.129,122.321 62.188,122.317 74.082 C 122.316 78.514,122.456 78.327,119.755 77.492 C 113.663 75.608,105.098 77.990,100.772 82.770 C 97.314 86.591,96.845 88.463,96.684 99.082 L 96.555 107.627 94.704 107.627 C 80.460 107.627,72.185 120.292,77.825 133.460 C 80.435 139.553,85.050 142.576,92.788 143.261 L 96.610 143.599 96.610 150.625 C 96.610 158.414,96.879 160.496,98.335 164.006 C 102.015 172.872,110.755 176.139,121.681 172.731 L 122.316 172.533 122.316 176.255 C 122.316 184.074,123.873 188.849,127.648 192.616 C 134.186 199.139,147.228 198.590,153.776 191.517 C 157.885 187.078,157.987 186.407,158.117 162.924 L 158.224 143.503 194.356 143.503 L 230.487 143.503 230.568 163.489 L 230.650 183.475 231.519 185.781 C 233.638 191.406,236.624 194.473,241.808 196.350 C 244.377 197.281,251.188 197.309,253.814 196.400 C 262.769 193.299,266.077 188.163,266.094 177.331 C 266.098 174.883,266.197 172.883,266.314 172.884 C 266.430 172.886,267.137 173.073,267.885 173.300 C 277.089 176.092,287.438 171.669,290.510 163.631 C 291.547 160.916,291.789 158.452,291.799 150.528 L 291.808 143.570 294.562 143.374 C 303.375 142.745,308.080 139.673,310.821 132.756 C 315.959 119.789,307.666 107.627,293.687 107.627 L 291.808 107.627 291.802 100.918 C 291.795 91.985,291.460 89.794,289.470 85.677 C 286.100 78.702,277.196 75.214,268.932 77.631 C 267.770 77.970,266.658 78.249,266.460 78.249 C 266.187 78.249,266.102 77.278,266.102 74.163 C 266.102 62.875,261.225 55.792,252.299 54.116 C 244.168 52.589,235.595 56.272,232.347 62.687 C 230.572 66.194,230.672 64.853,230.513 87.147 L 230.367 107.486 194.280 107.558 L 158.192 107.629 158.191 89.620 C 158.190 67.899,158.075 66.827,155.196 61.659 C 151.872 55.690,144.421 52.617,136.900 54.111 M143.664 64.403 C 145.263 65.087,146.775 66.743,147.451 68.550 C 148.018 70.065,148.023 70.550,148.020 125.787 L 148.017 181.497 147.352 182.925 C 145.167 187.618,138.242 188.822,134.568 185.148 C 131.981 182.561,132.183 187.870,132.269 124.718 L 132.345 69.350 133.010 68.012 C 134.851 64.307,139.647 62.682,143.664 64.403 M252.011 64.573 C 253.539 65.338,254.563 66.469,255.360 68.269 C 255.928 69.555,255.932 69.927,255.932 125.752 L 255.932 181.940 255.230 183.325 C 252.274 189.160,242.674 188.360,240.822 182.125 C 240.143 179.839,240.179 70.509,240.859 68.513 C 242.237 64.470,247.848 62.487,252.011 64.573 M118.322 87.692 C 119.751 88.416,120.899 89.696,121.695 91.455 C 122.138 92.432,122.175 95.080,122.175 125.706 L 122.175 158.898 121.564 160.028 C 118.327 166.016,108.932 165.325,106.999 158.957 C 106.387 156.940,106.480 92.862,107.097 91.505 C 108.901 87.539,114.361 85.685,118.322 87.692 M277.558 87.538 C 279.197 88.283,280.699 90.170,281.363 92.320 C 282.169 94.931,282.241 156.022,281.441 158.880 C 279.523 165.734,269.037 165.994,266.666 159.245 C 265.940 157.181,265.789 93.742,266.505 91.737 C 267.885 87.870,273.550 85.718,277.558 87.538 M96.544 125.494 L 96.619 133.333 94.405 133.333 C 88.939 133.333,85.948 130.255,86.213 124.902 C 86.449 120.125,89.710 117.436,95.056 117.609 L 96.469 117.655 96.544 125.494 M230.196 117.902 C 230.423 118.176,230.496 120.480,230.443 125.741 L 230.367 133.192 194.280 133.264 L 158.192 133.335 158.192 125.613 C 158.192 121.366,158.277 117.806,158.380 117.702 C 158.792 117.291,229.853 117.488,230.196 117.902 M297.595 118.287 C 305.891 121.208,302.942 133.633,294.036 133.276 L 291.949 133.192 291.874 125.585 C 291.815 119.695,291.879 117.921,292.156 117.730 C 292.676 117.372,295.947 117.706,297.595 118.287 " stroke="none" fill="#070707" fill-rule="evenodd"></path><path id="path1" d="M0.000 162.712 L 0.000 325.424 200.000 325.424 L 400.000 325.424 400.000 162.712 L 400.000 0.000 200.000 0.000 L 0.000 0.000 0.000 162.712 M124.685 11.318 C 129.496 11.880,134.247 12.616,135.445 12.984 C 135.915 13.128,137.571 13.568,139.124 13.962 C 160.444 19.364,180.164 34.438,192.010 54.391 L 194.198 58.075 195.909 55.097 C 208.115 33.853,230.389 17.690,254.096 12.874 C 255.339 12.621,256.928 12.287,257.628 12.131 C 264.773 10.540,278.591 10.730,288.136 12.552 C 311.017 16.919,331.949 30.996,345.072 50.842 C 348.447 55.946,352.087 63.080,353.941 68.220 C 354.445 69.619,355.025 71.208,355.230 71.751 C 355.750 73.128,357.200 78.530,357.733 81.073 C 358.899 86.643,359.040 88.506,359.040 98.446 C 359.040 111.202,358.389 115.529,354.902 125.984 C 352.098 134.386,346.472 145.228,342.405 150.065 C 340.378 152.475,338.262 154.966,338.139 155.085 C 338.059 155.162,337.040 156.370,335.876 157.768 C 334.711 159.167,333.694 160.374,333.615 160.452 C 333.537 160.530,332.525 161.737,331.367 163.136 C 330.209 164.534,329.192 165.742,329.107 165.819 C 329.023 165.897,328.001 167.105,326.836 168.503 C 325.671 169.901,324.590 171.186,324.435 171.359 C 323.659 172.221,322.675 173.384,322.145 174.066 C 321.820 174.485,320.977 175.502,320.273 176.326 C 316.392 180.866,315.003 182.507,313.983 183.752 C 313.362 184.510,312.297 185.775,311.617 186.563 C 310.142 188.272,309.806 188.670,307.063 191.955 C 305.898 193.350,304.881 194.555,304.802 194.633 C 304.724 194.710,303.707 195.918,302.542 197.316 C 301.377 198.715,300.297 200.000,300.141 200.172 C 299.566 200.811,298.391 202.197,296.328 204.667 C 295.163 206.062,294.146 207.267,294.068 207.345 C 293.989 207.422,292.973 208.630,291.808 210.028 C 290.643 211.427,289.626 212.634,289.548 212.712 C 289.470 212.790,288.452 213.995,287.288 215.390 C 286.123 216.785,284.897 218.247,284.565 218.638 C 284.232 219.030,283.043 220.431,281.921 221.751 C 280.799 223.072,279.609 224.473,279.277 224.864 C 278.944 225.256,277.721 226.718,276.558 228.113 C 275.395 229.508,273.679 231.546,272.744 232.640 C 271.810 233.735,270.473 235.318,269.774 236.158 C 269.075 236.998,267.738 238.581,266.804 239.676 C 265.869 240.771,264.153 242.808,262.990 244.203 C 261.827 245.599,260.604 247.060,260.271 247.452 C 257.964 250.168,255.306 253.310,252.260 256.921 C 250.318 259.223,247.903 262.082,246.893 263.275 C 245.883 264.467,243.849 266.881,242.373 268.639 C 240.897 270.397,237.528 274.391,234.887 277.515 C 232.246 280.639,228.499 285.101,226.560 287.431 C 222.934 291.789,215.307 299.723,213.196 301.331 C 212.541 301.830,211.624 302.579,211.158 302.995 C 208.486 305.378,201.705 309.141,198.630 309.947 C 194.946 310.913,194.036 310.908,190.142 309.903 C 183.282 308.134,172.605 299.756,164.031 289.416 C 161.848 286.783,159.358 283.824,157.249 281.356 C 156.918 280.968,154.504 278.107,151.886 275.000 C 149.268 271.893,146.640 268.778,146.047 268.079 C 145.453 267.380,143.420 264.965,141.529 262.712 C 139.638 260.459,137.816 258.298,137.480 257.910 C 137.145 257.521,135.109 255.106,132.956 252.542 C 130.803 249.979,128.770 247.564,128.437 247.175 C 127.944 246.599,125.670 243.903,122.363 239.972 C 120.317 237.539,113.544 229.525,112.575 228.390 C 111.911 227.613,105.101 219.541,97.441 210.452 C 89.780 201.363,79.119 188.721,73.748 182.359 C 68.377 175.997,62.203 168.675,60.028 166.087 C 57.853 163.500,53.778 158.663,50.972 155.339 C 46.744 150.329,42.373 144.539,42.373 143.950 C 42.373 143.873,42.053 143.338,41.661 142.761 C 40.752 141.421,37.580 135.164,36.595 132.768 C 36.180 131.758,35.658 130.532,35.434 130.042 C 35.211 129.552,35.028 128.974,35.028 128.757 C 35.028 128.539,34.917 128.241,34.781 128.093 C 34.531 127.822,32.932 122.756,32.110 119.633 C 29.228 108.684,28.620 96.713,30.373 85.452 C 30.820 82.577,30.879 82.289,31.941 77.825 C 32.601 75.049,34.292 69.642,34.745 68.860 C 34.901 68.590,35.028 68.233,35.028 68.067 C 35.028 67.901,35.264 67.232,35.553 66.581 C 35.842 65.929,36.255 64.953,36.471 64.411 C 45.832 40.975,70.613 19.739,95.621 13.720 C 96.709 13.459,97.983 13.127,98.453 12.983 C 99.592 12.634,103.494 12.021,108.898 11.342 C 111.765 10.982,121.681 10.967,124.685 11.318 M109.040 22.029 C 102.574 22.669,92.856 24.954,88.559 26.845 C 88.249 26.982,87.168 27.432,86.158 27.845 C 81.346 29.816,74.377 33.798,70.762 36.642 C 70.607 36.764,69.971 37.239,69.350 37.697 C 68.729 38.155,68.157 38.602,68.079 38.690 C 68.001 38.779,67.493 39.212,66.949 39.653 C 58.578 46.449,50.971 56.861,45.975 68.362 C 39.698 82.813,38.351 102.939,42.648 118.078 C 45.455 127.964,50.743 138.681,55.479 144.078 C 55.961 144.627,56.928 145.765,57.627 146.607 C 58.326 147.449,59.663 149.033,60.597 150.128 C 61.532 151.223,63.248 153.260,64.411 154.655 C 65.574 156.050,66.797 157.512,67.130 157.904 C 70.099 161.401,71.910 163.531,72.418 164.127 C 72.751 164.517,73.595 165.533,74.294 166.384 C 74.993 167.236,75.837 168.251,76.170 168.641 C 78.011 170.800,80.759 174.037,81.497 174.914 C 82.345 175.923,83.778 177.622,91.818 187.147 C 94.178 189.944,96.635 192.859,97.278 193.627 C 97.920 194.394,99.273 195.994,100.282 197.182 C 101.292 198.370,103.284 200.729,104.709 202.425 C 106.134 204.121,109.231 207.797,111.592 210.593 C 113.952 213.390,116.409 216.306,117.052 217.073 C 117.694 217.840,119.047 219.440,120.056 220.628 C 121.066 221.816,123.100 224.228,124.576 225.989 C 126.052 227.749,128.086 230.165,129.096 231.358 C 133.286 236.306,143.844 248.827,148.963 254.919 C 150.388 256.615,152.761 259.423,154.237 261.159 C 155.713 262.895,159.145 266.965,161.864 270.202 C 164.583 273.440,167.634 277.063,168.644 278.254 C 169.654 279.444,171.715 281.879,173.224 283.664 C 179.937 291.605,186.765 297.161,192.760 299.562 C 194.538 300.274,196.015 299.960,198.953 298.247 C 199.698 297.813,200.353 297.458,200.408 297.458 C 200.579 297.458,203.408 295.513,204.629 294.555 C 206.834 292.826,207.497 292.223,210.602 289.126 C 213.761 285.975,214.320 285.350,218.951 279.802 C 220.378 278.093,221.941 276.244,222.425 275.693 C 222.909 275.142,223.814 274.073,224.435 273.318 C 225.056 272.562,226.455 270.897,227.542 269.619 C 228.630 268.340,230.664 265.929,232.062 264.261 C 234.618 261.212,237.549 257.740,241.141 253.507 C 242.207 252.250,243.588 250.609,244.209 249.860 C 244.831 249.111,246.229 247.456,247.316 246.184 C 249.625 243.482,249.555 243.566,253.380 238.983 C 255.000 237.041,256.778 234.936,257.330 234.305 C 257.882 233.674,258.905 232.471,259.605 231.633 C 260.304 230.795,261.742 229.086,262.800 227.837 C 263.858 226.587,265.203 224.993,265.789 224.294 C 266.636 223.281,271.773 217.192,274.249 214.266 C 277.475 210.451,287.797 198.212,290.845 194.586 C 293.006 192.015,295.677 188.845,296.780 187.541 C 297.884 186.236,302.593 180.657,307.244 175.141 C 311.896 169.626,318.112 162.257,321.057 158.767 C 333.059 144.544,334.574 142.686,336.270 140.113 C 348.897 120.960,352.073 98.708,345.482 75.565 C 339.499 54.555,321.239 34.574,301.306 27.227 C 294.333 24.657,291.770 23.958,284.605 22.677 C 279.143 21.700,265.548 21.551,260.593 22.413 C 256.723 23.087,252.265 23.999,251.412 24.292 C 251.024 24.425,249.753 24.809,248.588 25.145 C 247.422 25.481,246.068 25.935,245.579 26.155 C 245.089 26.374,244.567 26.554,244.419 26.554 C 243.924 26.554,238.314 29.102,235.311 30.691 C 221.541 37.977,209.860 50.196,202.944 64.548 C 201.371 67.813,199.153 73.126,199.153 73.630 C 199.153 74.143,197.578 75.778,196.605 76.274 C 193.575 77.820,189.576 75.859,188.823 72.458 C 188.720 71.992,188.549 71.483,188.443 71.328 C 188.338 71.172,187.956 70.282,187.595 69.350 C 185.595 64.179,180.359 54.931,177.362 51.272 C 164.824 35.966,152.369 27.922,134.507 23.596 C 128.390 22.114,115.924 21.347,109.040 22.029 M146.469 54.237 C 152.690 56.194,156.636 61.061,158.068 68.544 C 158.396 70.260,158.475 74.216,158.475 89.008 L 158.475 107.345 194.209 107.345 L 229.944 107.345 229.952 88.912 C 229.963 67.071,230.032 66.264,232.256 62.091 C 235.612 55.794,244.376 52.215,252.590 53.787 C 261.503 55.492,266.383 62.567,266.384 73.783 C 266.384 78.060,266.407 78.113,267.970 77.568 C 277.967 74.078,287.605 78.668,291.047 88.559 L 291.932 91.102 292.082 99.153 L 292.232 107.203 293.644 107.272 C 305.759 107.863,312.516 114.197,312.556 125.000 C 312.597 136.023,306.316 142.992,295.904 143.474 L 292.232 143.644 292.070 152.260 C 291.893 161.673,291.811 162.211,290.031 165.607 C 288.303 168.903,283.054 173.164,280.722 173.164 C 280.511 173.164,280.218 173.280,280.071 173.422 C 278.725 174.714,271.965 174.786,267.080 173.560 L 266.384 173.385 266.384 177.724 C 266.384 180.553,266.231 182.799,265.944 184.181 C 262.763 199.514,239.557 202.682,232.414 188.758 C 230.067 184.182,230.124 184.784,229.954 162.994 L 229.802 143.644 194.151 143.572 L 158.500 143.501 158.407 163.346 C 158.304 185.278,158.368 184.472,156.435 188.389 C 151.658 198.067,135.441 200.789,127.703 193.212 C 123.733 189.325,122.326 185.539,122.106 178.152 C 121.959 173.196,121.947 173.115,121.360 173.268 C 108.923 176.494,100.939 172.837,97.261 162.228 C 96.519 160.088,96.494 159.804,96.342 151.836 L 96.186 143.644 92.514 143.474 C 83.798 143.071,78.285 138.447,76.285 129.862 C 73.464 117.755,80.769 108.217,93.503 107.380 L 96.186 107.203 96.341 98.729 C 96.515 89.218,96.663 88.374,98.792 84.782 C 102.501 78.523,111.836 75.080,119.633 77.096 C 122.136 77.743,121.948 78.117,122.108 72.175 C 122.291 65.364,123.167 62.709,126.427 59.083 C 130.719 54.310,139.754 52.125,146.469 54.237 M138.136 64.296 C 135.541 65.283,134.149 66.448,133.316 68.327 C 132.525 70.113,132.448 180.236,133.237 182.268 C 135.560 188.254,143.921 188.646,146.992 182.913 L 147.599 181.780 147.599 125.706 C 147.599 63.283,147.772 69.020,145.813 66.436 C 144.511 64.720,140.190 63.515,138.136 64.296 M245.729 64.497 C 243.272 65.416,241.860 66.776,241.085 68.973 C 240.403 70.907,240.481 179.692,241.166 181.867 C 243.075 187.921,251.902 188.809,254.875 183.246 L 255.508 182.062 255.508 125.565 L 255.508 69.068 254.899 67.938 C 253.211 64.809,249.060 63.252,245.729 64.497 M112.853 87.403 C 109.256 88.292,107.651 89.996,107.077 93.536 C 106.544 96.818,106.683 155.535,107.229 157.935 C 109.128 166.286,120.788 165.741,121.764 157.256 C 122.129 154.077,122.107 96.202,121.739 93.657 C 121.183 89.815,117.607 86.584,114.407 87.034 C 114.329 87.045,113.630 87.211,112.853 87.403 M272.253 87.442 C 268.442 88.372,266.993 90.150,266.612 94.360 C 266.471 95.915,266.396 110.944,266.443 127.760 L 266.531 158.333 267.146 159.605 C 269.389 164.236,275.595 165.252,279.467 161.622 C 281.483 159.732,281.356 162.145,281.356 125.653 L 281.356 92.903 280.633 91.374 C 279.087 88.106,275.816 86.572,272.253 87.442 M90.960 118.648 C 83.032 121.444,85.885 133.051,94.501 133.051 L 96.328 133.051 96.328 125.565 L 96.328 118.079 94.421 118.089 C 93.281 118.095,91.890 118.320,90.960 118.648 M158.475 125.565 L 158.475 133.051 194.209 133.051 L 229.944 133.051 229.944 125.565 L 229.944 118.079 194.209 118.079 L 158.475 118.079 158.475 125.565 M292.156 125.455 L 292.232 132.910 293.908 132.996 C 298.569 133.236,301.977 130.052,301.977 125.460 C 301.977 120.987,299.409 118.459,294.557 118.155 L 292.081 118.000 292.156 125.455 " stroke="none" fill="#f3f3f3" fill-rule="evenodd"></path><path id="path2" d="M115.749 11.221 C 116.254 11.284,117.080 11.284,117.585 11.221 C 118.090 11.159,117.677 11.107,116.667 11.107 C 115.657 11.107,115.244 11.159,115.749 11.221 M271.403 11.222 C 271.911 11.285,272.674 11.283,273.098 11.219 C 273.523 11.154,273.107 11.103,272.175 11.104 C 271.243 11.106,270.896 11.159,271.403 11.222 M61.864 43.927 C 61.178 44.626,60.680 45.198,60.758 45.198 C 60.836 45.198,61.461 44.626,62.147 43.927 C 62.833 43.227,63.331 42.655,63.253 42.655 C 63.176 42.655,62.551 43.227,61.864 43.927 M234.587 59.110 L 233.757 60.028 234.675 59.199 C 235.180 58.742,235.593 58.329,235.593 58.280 C 235.593 58.062,235.360 58.254,234.587 59.110 M122.145 74.011 C 122.145 76.109,122.189 76.967,122.243 75.918 C 122.298 74.869,122.298 73.153,122.243 72.105 C 122.189 71.056,122.145 71.914,122.145 74.011 M147.879 125.706 C 147.879 155.925,147.912 168.287,147.952 153.178 C 147.992 138.069,147.992 113.344,147.952 98.234 C 147.912 83.125,147.879 95.487,147.879 125.706 M266.228 74.553 C 266.240 77.423,266.320 78.082,266.667 78.176 C 266.970 78.259,266.993 78.222,266.747 78.047 C 266.520 77.886,266.371 76.659,266.309 74.424 L 266.214 71.045 266.228 74.553 M240.534 125.565 C 240.534 155.395,240.567 167.557,240.607 152.591 C 240.648 137.624,240.648 113.217,240.607 98.353 C 240.567 83.489,240.534 95.734,240.534 125.565 M114.199 76.756 C 114.628 76.821,115.264 76.820,115.611 76.753 C 115.959 76.685,115.607 76.632,114.831 76.634 C 114.054 76.637,113.769 76.691,114.199 76.756 M273.521 76.756 C 273.950 76.821,274.586 76.820,274.933 76.753 C 275.281 76.685,274.929 76.632,274.153 76.634 C 273.376 76.637,273.091 76.691,273.521 76.756 M96.393 93.503 C 96.393 94.047,96.451 94.269,96.522 93.997 C 96.593 93.725,96.593 93.280,96.522 93.008 C 96.451 92.737,96.393 92.959,96.393 93.503 M39.896 95.763 C 39.896 96.306,39.954 96.529,40.025 96.257 C 40.096 95.985,40.096 95.540,40.025 95.268 C 39.954 94.996,39.896 95.219,39.896 95.763 M266.238 125.424 C 266.238 142.126,266.272 148.958,266.314 140.607 C 266.355 132.256,266.355 118.591,266.314 110.240 C 266.272 101.889,266.238 108.722,266.238 125.424 M122.170 125.565 C 122.170 141.879,122.204 148.511,122.246 140.303 C 122.287 132.096,122.287 118.748,122.246 110.642 C 122.204 102.536,122.170 109.251,122.170 125.565 M348.947 98.588 C 348.947 99.287,349.002 99.573,349.069 99.223 C 349.137 98.874,349.137 98.302,349.069 97.952 C 349.002 97.602,348.947 97.888,348.947 98.588 M39.902 101.271 C 39.905 101.893,39.963 102.114,40.030 101.762 C 40.098 101.411,40.095 100.902,40.025 100.632 C 39.954 100.362,39.899 100.650,39.902 101.271 M75.772 125.424 C 75.772 125.968,75.830 126.190,75.901 125.918 C 75.972 125.646,75.972 125.201,75.901 124.929 C 75.830 124.657,75.772 124.880,75.772 125.424 M93.856 133.253 C 94.283 133.318,94.982 133.318,95.410 133.253 C 95.837 133.188,95.487 133.135,94.633 133.135 C 93.778 133.135,93.429 133.188,93.856 133.253 M176.364 133.263 C 186.280 133.304,202.425 133.304,212.239 133.263 C 222.054 133.221,213.941 133.188,194.209 133.188 C 174.477 133.188,166.447 133.222,176.364 133.263 M293.008 133.253 C 293.436 133.318,294.135 133.318,294.562 133.253 C 294.989 133.188,294.640 133.135,293.785 133.135 C 292.931 133.135,292.581 133.188,293.008 133.253 M122.144 176.695 C 122.144 178.715,122.189 179.504,122.244 178.449 C 122.298 177.394,122.298 175.741,122.243 174.776 C 122.188 173.812,122.143 174.675,122.144 176.695 M266.211 176.554 C 266.211 178.496,266.256 179.290,266.311 178.319 C 266.366 177.348,266.366 175.759,266.311 174.788 C 266.256 173.817,266.211 174.612,266.211 176.554 M261.423 192.161 L 260.593 193.079 261.511 192.249 C 262.016 191.793,262.429 191.380,262.429 191.331 C 262.429 191.113,262.196 191.305,261.423 192.161 " stroke="none" fill="#7c7c7c" fill-rule="evenodd"></path><path id="path3" d="M111.801 11.224 C 112.466 11.284,113.483 11.283,114.061 11.222 C 114.640 11.162,114.096 11.113,112.853 11.114 C 111.610 11.115,111.137 11.164,111.801 11.224 M119.571 11.225 C 120.313 11.283,121.457 11.283,122.113 11.223 C 122.769 11.164,122.161 11.116,120.763 11.117 C 119.364 11.118,118.828 11.167,119.571 11.225 M267.028 11.225 C 267.771 11.283,268.915 11.283,269.571 11.223 C 270.226 11.164,269.619 11.116,268.220 11.117 C 266.822 11.118,266.286 11.167,267.028 11.225 M274.788 11.224 C 275.448 11.283,276.529 11.283,277.189 11.224 C 277.850 11.164,277.309 11.116,275.989 11.116 C 274.668 11.116,274.128 11.164,274.788 11.224 M258.545 12.059 C 258.817 12.130,259.262 12.130,259.534 12.059 C 259.806 11.988,259.583 11.930,259.040 11.930 C 258.496 11.930,258.273 11.988,258.545 12.059 M98.588 13.007 C 98.278 13.217,98.392 13.243,99.011 13.104 C 100.050 12.872,100.275 12.710,99.553 12.716 C 99.255 12.719,98.821 12.850,98.588 13.007 M289.007 12.813 C 289.071 12.869,289.506 13.000,289.972 13.104 C 290.591 13.243,290.705 13.217,290.395 13.007 C 290.014 12.749,288.723 12.569,289.007 12.813 M86.582 16.535 C 85.876 16.876,85.852 16.915,86.441 16.771 C 87.241 16.575,88.141 16.117,87.712 16.123 C 87.556 16.125,87.048 16.311,86.582 16.535 M146.328 16.337 C 146.561 16.481,147.069 16.683,147.458 16.787 C 147.948 16.919,148.035 16.896,147.740 16.714 C 147.507 16.570,146.999 16.368,146.610 16.264 C 146.119 16.132,146.033 16.155,146.328 16.337 M114.477 21.679 C 115.837 21.731,118.061 21.731,119.421 21.679 C 120.780 21.627,119.668 21.585,116.949 21.585 C 114.230 21.585,113.118 21.627,114.477 21.679 M269.562 21.679 C 270.922 21.731,273.146 21.731,274.506 21.679 C 275.865 21.627,274.753 21.585,272.034 21.585 C 269.315 21.585,268.203 21.627,269.562 21.679 M109.820 21.951 C 110.171 22.019,110.680 22.016,110.950 21.946 C 111.220 21.875,110.932 21.820,110.311 21.823 C 109.689 21.826,109.468 21.884,109.820 21.951 M123.097 21.951 C 123.448 22.019,123.956 22.016,124.226 21.946 C 124.497 21.875,124.209 21.820,123.588 21.823 C 122.966 21.826,122.745 21.884,123.097 21.951 M264.619 21.951 C 264.968 22.018,265.540 22.018,265.890 21.951 C 266.239 21.883,265.953 21.828,265.254 21.828 C 264.555 21.828,264.269 21.883,264.619 21.951 M278.181 21.951 C 278.533 22.019,279.041 22.016,279.311 21.946 C 279.581 21.875,279.294 21.820,278.672 21.823 C 278.051 21.826,277.830 21.884,278.181 21.951 M284.040 22.599 C 285.234 22.903,286.260 22.903,285.311 22.599 C 284.922 22.474,284.287 22.375,283.898 22.378 C 283.264 22.383,283.278 22.405,284.040 22.599 M99.294 23.446 C 98.938 23.599,98.885 23.689,99.153 23.689 C 99.386 23.689,99.831 23.580,100.141 23.446 C 100.497 23.293,100.550 23.204,100.282 23.204 C 100.049 23.204,99.605 23.313,99.294 23.446 M133.757 23.446 C 134.068 23.580,134.576 23.685,134.887 23.681 C 135.341 23.674,135.313 23.628,134.746 23.446 C 133.780 23.137,133.037 23.137,133.757 23.446 M317.373 24.158 C 317.684 24.411,318.192 24.742,318.503 24.895 L 319.068 25.172 318.503 24.712 C 318.192 24.459,317.684 24.128,317.373 23.975 L 316.808 23.698 317.373 24.158 M245.056 26.140 C 244.347 26.482,244.324 26.520,244.915 26.378 C 245.304 26.284,245.742 26.095,245.890 25.957 C 246.256 25.615,246.055 25.659,245.056 26.140 M64.114 29.116 L 63.136 29.984 64.195 29.224 C 65.131 28.552,65.436 28.249,65.173 28.249 C 65.128 28.249,64.652 28.639,64.114 29.116 M304.520 28.672 C 304.908 28.894,305.353 29.076,305.508 29.076 C 305.664 29.076,305.473 28.894,305.085 28.672 C 304.696 28.450,304.251 28.269,304.096 28.269 C 303.941 28.269,304.131 28.450,304.520 28.672 M172.096 31.224 C 172.519 31.669,172.915 31.975,172.977 31.906 C 173.039 31.836,172.693 31.473,172.209 31.098 L 171.328 30.416 172.096 31.224 M60.293 32.274 L 59.463 33.192 60.381 32.362 C 60.886 31.906,61.299 31.493,61.299 31.444 C 61.299 31.226,61.066 31.418,60.293 32.274 M327.966 31.727 C 327.966 31.775,328.379 32.189,328.884 32.645 L 329.802 33.475 328.973 32.556 C 328.199 31.701,327.966 31.509,327.966 31.727 M173.446 32.292 C 173.446 32.340,173.859 32.754,174.364 33.210 L 175.282 34.040 174.453 33.121 C 173.679 32.266,173.446 32.074,173.446 32.292 M213.405 33.686 L 212.288 34.887 213.489 33.770 C 214.605 32.732,214.819 32.486,214.605 32.486 C 214.559 32.486,214.019 33.026,213.405 33.686 M313.258 33.280 C 313.636 33.587,314.335 34.053,314.812 34.315 L 315.678 34.793 314.990 34.235 C 314.612 33.927,313.913 33.461,313.437 33.199 L 312.571 32.721 313.258 33.280 M57.755 34.534 L 56.638 35.734 57.839 34.618 C 58.955 33.579,59.169 33.333,58.956 33.333 C 58.909 33.333,58.369 33.874,57.755 34.534 M333.192 36.723 C 335.052 38.588,336.637 40.113,336.714 40.113 C 336.792 40.113,335.334 38.588,333.475 36.723 C 331.615 34.859,330.030 33.333,329.952 33.333 C 329.875 33.333,331.333 34.859,333.192 36.723 M177.825 36.441 C 179.217 37.839,180.419 38.983,180.497 38.983 C 180.574 38.983,179.499 37.839,178.107 36.441 C 176.716 35.042,175.513 33.898,175.436 33.898 C 175.358 33.898,176.433 35.042,177.825 36.441 M316.949 35.696 C 316.949 35.774,317.331 36.109,317.797 36.441 C 318.263 36.773,318.644 36.981,318.644 36.903 C 318.644 36.825,318.263 36.490,317.797 36.158 C 317.331 35.826,316.949 35.618,316.949 35.696 M209.605 37.147 C 208.918 37.846,208.421 38.418,208.498 38.418 C 208.576 38.418,209.201 37.846,209.887 37.147 C 210.573 36.448,211.071 35.876,210.993 35.876 C 210.916 35.876,210.291 36.448,209.605 37.147 M224.506 37.454 C 223.612 38.165,222.881 38.808,222.881 38.883 C 222.881 38.959,223.644 38.421,224.576 37.689 C 226.070 36.515,226.455 36.153,226.201 36.160 C 226.162 36.161,225.399 36.744,224.506 37.454 M163.842 37.369 C 163.842 37.442,164.568 38.121,165.455 38.878 C 166.342 39.635,166.977 40.107,166.866 39.927 C 166.624 39.532,163.842 37.179,163.842 37.369 M52.957 39.336 L 51.271 41.102 53.037 39.416 C 54.008 38.488,54.802 37.694,54.802 37.650 C 54.802 37.441,54.523 37.696,52.957 39.336 M66.928 39.477 L 66.243 40.254 67.090 39.548 C 67.556 39.160,67.991 38.810,68.056 38.771 C 68.120 38.732,68.047 38.701,67.893 38.701 C 67.739 38.701,67.304 39.050,66.928 39.477 M321.469 39.071 C 321.469 39.120,321.882 39.533,322.387 39.990 L 323.305 40.819 322.475 39.901 C 321.702 39.045,321.469 38.853,321.469 39.071 M206.215 40.819 C 205.529 41.518,205.031 42.090,205.108 42.090 C 205.186 42.090,205.811 41.518,206.497 40.819 C 207.183 40.120,207.681 39.548,207.604 39.548 C 207.526 39.548,206.901 40.120,206.215 40.819 M64.115 42.020 L 62.571 43.644 64.195 42.100 C 65.704 40.666,65.949 40.395,65.739 40.395 C 65.695 40.395,64.964 41.126,64.115 42.020 M170.334 43.291 C 173.084 46.112,173.446 46.456,173.446 46.252 C 173.446 46.210,172.080 44.844,170.410 43.215 L 167.373 40.254 170.334 43.291 M337.006 40.766 C 337.006 40.815,337.419 41.228,337.924 41.684 L 338.842 42.514 338.012 41.596 C 337.239 40.740,337.006 40.548,337.006 40.766 M217.368 43.856 L 214.548 46.751 217.444 43.932 C 219.036 42.381,220.339 41.078,220.339 41.036 C 220.339 40.832,219.986 41.167,217.368 43.856 M326.549 43.856 C 329.299 46.677,329.661 47.021,329.661 46.817 C 329.661 46.775,328.294 45.409,326.624 43.780 L 323.588 40.819 326.549 43.856 M184.162 43.432 C 184.843 44.248,185.454 44.915,185.520 44.915 C 185.712 44.915,183.972 42.784,183.422 42.346 C 183.149 42.128,183.482 42.617,184.162 43.432 M339.940 44.152 C 340.539 44.882,341.087 45.480,341.159 45.480 C 341.352 45.480,339.563 43.263,339.179 43.026 C 338.999 42.914,339.341 43.421,339.940 44.152 M60.584 45.551 L 58.898 47.316 60.664 45.630 C 61.635 44.703,62.429 43.908,62.429 43.865 C 62.429 43.656,62.151 43.911,60.584 45.551 M202.542 45.198 C 202.050 45.819,201.711 46.328,201.789 46.328 C 201.866 46.328,202.333 45.819,202.825 45.198 C 203.317 44.576,203.656 44.068,203.579 44.068 C 203.501 44.068,203.035 44.576,202.542 45.198 M200.847 47.458 C 200.516 47.924,200.308 48.305,200.385 48.305 C 200.463 48.305,200.798 47.924,201.130 47.458 C 201.462 46.992,201.670 46.610,201.592 46.610 C 201.514 46.610,201.179 46.992,200.847 47.458 M173.729 46.981 C 173.729 47.030,174.142 47.443,174.647 47.899 L 175.565 48.729 174.735 47.811 C 173.962 46.955,173.729 46.763,173.729 46.981 M213.683 47.811 L 212.853 48.729 213.771 47.899 C 214.276 47.443,214.689 47.030,214.689 46.981 C 214.689 46.763,214.456 46.955,213.683 47.811 M329.944 47.546 C 329.944 47.595,330.357 48.008,330.862 48.464 L 331.780 49.294 330.950 48.376 C 330.177 47.520,329.944 47.328,329.944 47.546 M210.734 51.412 C 210.242 52.034,209.903 52.542,209.981 52.542 C 210.058 52.542,210.525 52.034,211.017 51.412 C 211.509 50.791,211.848 50.282,211.771 50.282 C 211.693 50.282,211.227 50.791,210.734 51.412 M139.204 53.598 C 140.025 53.656,141.296 53.655,142.029 53.597 C 142.762 53.539,142.090 53.492,140.537 53.493 C 138.983 53.494,138.383 53.541,139.204 53.598 M247.246 53.597 C 247.984 53.656,249.191 53.656,249.929 53.597 C 250.667 53.539,250.064 53.492,248.588 53.492 C 247.112 53.492,246.508 53.539,247.246 53.597 M134.605 54.237 C 134.248 54.390,134.196 54.480,134.463 54.480 C 134.696 54.480,135.141 54.371,135.452 54.237 C 135.808 54.084,135.860 53.995,135.593 53.995 C 135.360 53.995,134.915 54.104,134.605 54.237 M253.814 54.237 C 254.124 54.371,254.569 54.480,254.802 54.480 C 255.069 54.480,255.017 54.390,254.661 54.237 C 254.350 54.104,253.905 53.995,253.672 53.995 C 253.405 53.995,253.457 54.084,253.814 54.237 M195.056 56.497 C 194.815 56.963,194.682 57.345,194.760 57.345 C 194.837 57.345,195.098 56.963,195.339 56.497 C 195.580 56.031,195.714 55.650,195.636 55.650 C 195.558 55.650,195.298 56.031,195.056 56.497 M127.318 58.263 L 125.797 59.746 127.235 58.498 C 128.025 57.812,128.793 57.145,128.941 57.015 C 129.088 56.886,129.126 56.780,129.024 56.780 C 128.923 56.780,128.155 57.447,127.318 58.263 M260.876 58.192 C 261.483 58.814,262.043 59.322,262.120 59.322 C 262.198 59.322,261.765 58.814,261.158 58.192 C 260.551 57.571,259.991 57.062,259.914 57.062 C 259.836 57.062,260.269 57.571,260.876 58.192 M38.404 60.198 C 37.925 61.146,37.580 61.968,37.637 62.025 C 37.694 62.082,38.146 61.307,38.642 60.302 C 39.137 59.297,39.482 58.475,39.408 58.475 C 39.334 58.475,38.882 59.250,38.404 60.198 M351.432 62.571 C 351.432 62.726,351.614 63.171,351.836 63.559 C 352.058 63.948,352.240 64.138,352.240 63.983 C 352.240 63.828,352.058 63.383,351.836 62.994 C 351.614 62.606,351.432 62.415,351.432 62.571 M139.760 64.041 C 140.109 64.108,140.681 64.108,141.031 64.041 C 141.381 63.974,141.095 63.919,140.395 63.919 C 139.696 63.919,139.410 63.974,139.760 64.041 M247.815 64.045 C 248.244 64.109,248.880 64.108,249.227 64.041 C 249.574 63.974,249.223 63.920,248.446 63.923 C 247.669 63.925,247.385 63.980,247.815 64.045 M134.448 66.314 L 133.475 67.373 134.534 66.399 C 135.117 65.864,135.593 65.387,135.593 65.340 C 135.593 65.124,135.354 65.328,134.448 66.314 M230.685 65.689 C 230.588 65.941,230.519 66.360,230.533 66.619 C 230.546 66.878,230.669 66.715,230.806 66.257 C 231.072 65.366,230.978 64.924,230.685 65.689 M252.825 65.343 C 252.825 65.391,253.238 65.804,253.743 66.261 L 254.661 67.090 253.831 66.172 C 253.058 65.317,252.825 65.124,252.825 65.343 M242.090 66.667 C 241.759 67.133,241.551 67.514,241.628 67.514 C 241.706 67.514,242.041 67.133,242.373 66.667 C 242.705 66.201,242.913 65.819,242.835 65.819 C 242.757 65.819,242.422 66.201,242.090 66.667 M187.026 67.938 C 187.026 68.093,187.207 68.538,187.429 68.927 C 187.651 69.315,187.833 69.506,187.833 69.350 C 187.833 69.195,187.651 68.750,187.429 68.362 C 187.207 67.973,187.026 67.782,187.026 67.938 M266.173 70.198 C 266.176 70.819,266.234 71.040,266.301 70.689 C 266.369 70.337,266.366 69.829,266.296 69.559 C 266.225 69.289,266.170 69.576,266.173 70.198 M230.012 88.489 L 229.944 107.345 194.211 107.345 L 158.479 107.345 158.403 88.630 L 158.327 69.915 158.330 88.701 L 158.333 107.486 194.147 107.558 C 222.649 107.615,229.988 107.557,230.096 107.275 C 230.170 107.080,230.197 98.531,230.156 88.277 L 230.081 69.633 230.012 88.489 M132.624 125.424 C 132.624 155.798,132.657 168.224,132.698 153.037 C 132.738 137.850,132.738 112.998,132.698 97.811 C 132.657 82.624,132.624 95.049,132.624 125.424 M255.788 125.706 C 255.788 156.236,255.821 168.725,255.862 153.460 C 255.902 138.196,255.902 113.217,255.862 97.952 C 255.821 82.687,255.788 95.177,255.788 125.706 M112.218 76.748 C 112.489 76.819,112.934 76.819,113.206 76.748 C 113.478 76.677,113.256 76.619,112.712 76.619 C 112.168 76.619,111.946 76.677,112.218 76.748 M116.599 76.753 C 116.951 76.821,117.459 76.818,117.729 76.748 C 117.999 76.677,117.712 76.622,117.090 76.625 C 116.469 76.628,116.248 76.686,116.599 76.753 M271.540 76.748 C 271.811 76.819,272.256 76.819,272.528 76.748 C 272.800 76.677,272.578 76.619,272.034 76.619 C 271.490 76.619,271.268 76.677,271.540 76.748 M275.921 76.753 C 276.273 76.821,276.781 76.818,277.051 76.748 C 277.321 76.677,277.034 76.622,276.412 76.625 C 275.791 76.628,275.570 76.686,275.921 76.753 M42.252 78.975 C 42.148 79.389,42.117 79.782,42.184 79.849 C 42.251 79.915,42.390 79.631,42.494 79.217 C 42.598 78.803,42.628 78.410,42.562 78.343 C 42.495 78.277,42.356 78.561,42.252 78.975 M346.367 78.814 C 346.367 79.047,346.477 79.492,346.610 79.802 C 346.763 80.158,346.853 80.211,346.853 79.944 C 346.853 79.710,346.744 79.266,346.610 78.955 C 346.457 78.599,346.367 78.546,346.367 78.814 M286.582 81.356 C 287.347 82.133,288.037 82.768,288.114 82.768 C 288.192 82.768,287.630 82.133,286.864 81.356 C 286.099 80.579,285.410 79.944,285.332 79.944 C 285.254 79.944,285.817 80.579,286.582 81.356 M100.847 82.062 C 100.161 82.761,99.663 83.333,99.741 83.333 C 99.819 83.333,100.444 82.761,101.130 82.062 C 101.816 81.363,102.314 80.791,102.236 80.791 C 102.159 80.791,101.534 81.363,100.847 82.062 M30.932 81.921 C 30.825 82.409,30.796 82.868,30.868 82.940 C 30.940 83.012,31.080 82.664,31.179 82.168 C 31.415 80.991,31.187 80.762,30.932 81.921 M114.995 87.109 C 115.060 87.166,115.621 87.291,116.243 87.385 C 117.030 87.505,117.202 87.480,116.808 87.301 C 116.266 87.056,114.753 86.895,114.995 87.109 M30.009 88.136 C 30.009 88.679,30.067 88.902,30.138 88.630 C 30.209 88.358,30.209 87.913,30.138 87.641 C 30.067 87.369,30.009 87.592,30.009 88.136 M278.314 88.447 C 278.739 88.764,279.417 89.427,279.820 89.921 C 280.224 90.415,280.422 90.551,280.260 90.222 C 279.949 89.593,278.088 87.847,277.744 87.862 C 277.633 87.867,277.890 88.130,278.314 88.447 M358.885 98.446 C 358.885 104.350,358.923 106.806,358.968 103.903 C 359.014 101.000,359.014 96.169,358.969 93.168 C 358.923 90.167,358.885 92.542,358.885 98.446 M40.467 89.124 C 40.470 89.746,40.528 89.967,40.595 89.615 C 40.663 89.264,40.660 88.755,40.590 88.485 C 40.519 88.215,40.464 88.503,40.467 89.124 M348.376 89.972 C 348.379 90.593,348.437 90.814,348.505 90.463 C 348.572 90.111,348.570 89.603,348.499 89.333 C 348.428 89.063,348.373 89.350,348.376 89.972 M29.727 90.678 C 29.727 91.222,29.785 91.444,29.856 91.172 C 29.927 90.900,29.927 90.456,29.856 90.184 C 29.785 89.912,29.727 90.134,29.727 90.678 M266.469 94.068 C 266.469 94.922,266.522 95.272,266.587 94.845 C 266.651 94.417,266.651 93.718,266.587 93.291 C 266.522 92.864,266.469 93.213,266.469 94.068 M106.845 93.785 C 106.845 94.329,106.903 94.552,106.974 94.280 C 107.045 94.008,107.045 93.563,106.974 93.291 C 106.903 93.019,106.845 93.242,106.845 93.785 M121.823 93.927 C 121.826 94.548,121.884 94.769,121.951 94.418 C 122.019 94.066,122.016 93.558,121.946 93.288 C 121.875 93.018,121.820 93.305,121.823 93.927 M29.494 98.446 C 29.494 101.088,29.536 102.206,29.588 100.932 C 29.641 99.658,29.641 97.497,29.589 96.130 C 29.537 94.763,29.494 95.805,29.494 98.446 M281.492 125.706 C 281.492 143.340,281.526 150.554,281.568 141.737 C 281.609 132.920,281.609 118.492,281.568 109.675 C 281.526 100.858,281.492 108.072,281.492 125.706 M39.923 98.446 C 39.924 99.534,39.976 99.944,40.037 99.358 C 40.098 98.772,40.097 97.882,40.034 97.381 C 39.972 96.879,39.922 97.359,39.923 98.446 M348.376 106.921 C 348.379 107.542,348.437 107.763,348.505 107.412 C 348.572 107.061,348.570 106.552,348.499 106.282 C 348.428 106.012,348.373 106.299,348.376 106.921 M40.461 107.627 C 40.461 108.171,40.519 108.393,40.590 108.121 C 40.661 107.850,40.661 107.405,40.590 107.133 C 40.519 106.861,40.461 107.083,40.461 107.627 M93.927 107.345 L 91.667 107.524 93.997 107.575 C 95.397 107.606,96.328 107.514,96.328 107.345 C 96.328 107.189,96.296 107.085,96.257 107.114 C 96.218 107.142,95.169 107.246,93.927 107.345 M292.343 107.429 C 292.468 107.553,293.447 107.616,294.520 107.568 L 296.469 107.480 294.292 107.342 C 293.095 107.266,292.218 107.305,292.343 107.429 M30.009 108.757 C 30.009 109.301,30.067 109.523,30.138 109.251 C 30.209 108.980,30.209 108.535,30.138 108.263 C 30.067 107.991,30.009 108.213,30.009 108.757 M88.277 108.192 C 87.921 108.345,87.869 108.435,88.136 108.435 C 88.369 108.435,88.814 108.326,89.124 108.192 C 89.480 108.039,89.533 107.949,89.266 107.949 C 89.032 107.949,88.588 108.059,88.277 108.192 M299.294 108.192 C 299.605 108.326,300.049 108.435,300.282 108.435 C 300.550 108.435,300.497 108.345,300.141 108.192 C 299.831 108.059,299.386 107.949,299.153 107.949 C 298.885 107.949,298.938 108.039,299.294 108.192 M80.354 112.782 L 79.237 113.983 80.438 112.866 C 81.098 112.252,81.638 111.712,81.638 111.666 C 81.638 111.452,81.392 111.666,80.354 112.782 M307.768 112.712 C 308.375 113.333,308.935 113.842,309.013 113.842 C 309.091 113.842,308.658 113.333,308.051 112.712 C 307.444 112.090,306.884 111.582,306.806 111.582 C 306.729 111.582,307.162 112.090,307.768 112.712 M310.754 116.808 C 310.754 116.963,310.936 117.408,311.158 117.797 C 311.380 118.185,311.562 118.376,311.562 118.220 C 311.562 118.065,311.380 117.620,311.158 117.232 C 310.936 116.843,310.754 116.653,310.754 116.808 M356.941 118.241 C 356.837 118.655,356.807 119.048,356.873 119.114 C 356.940 119.181,357.079 118.897,357.183 118.483 C 357.287 118.069,357.318 117.675,357.251 117.609 C 357.184 117.542,357.045 117.827,356.941 118.241 M93.715 118.001 C 94.220 118.064,95.046 118.064,95.551 118.001 C 96.056 117.938,95.643 117.887,94.633 117.887 C 93.623 117.887,93.210 117.938,93.715 118.001 M158.320 118.153 C 158.244 118.351,158.219 121.815,158.263 125.852 L 158.343 133.192 158.409 125.636 L 158.475 118.079 194.204 118.079 L 229.934 118.079 230.017 125.565 L 230.099 133.051 230.092 125.494 L 230.085 117.938 194.271 117.866 C 165.524 117.809,158.431 117.865,158.320 118.153 M293.155 118.001 C 293.663 118.064,294.425 118.063,294.850 117.998 C 295.274 117.934,294.859 117.883,293.927 117.884 C 292.994 117.886,292.647 117.938,293.155 118.001 M88.259 120.127 L 87.429 121.045 88.347 120.216 C 88.852 119.759,89.266 119.346,89.266 119.297 C 89.266 119.079,89.032 119.271,88.259 120.127 M299.153 119.297 C 299.153 119.346,299.566 119.759,300.071 120.216 L 300.989 121.045 300.159 120.127 C 299.386 119.271,299.153 119.079,299.153 119.297 M311.912 120.056 C 311.927 120.790,312.372 121.996,312.381 121.328 C 312.386 121.017,312.280 120.508,312.147 120.198 C 311.998 119.852,311.907 119.797,311.912 120.056 M75.783 123.446 C 75.783 124.145,75.838 124.431,75.906 124.082 C 75.973 123.732,75.973 123.160,75.906 122.811 C 75.838 122.461,75.783 122.747,75.783 123.446 M312.506 123.729 C 312.506 124.428,312.561 124.714,312.629 124.364 C 312.696 124.015,312.696 123.443,312.629 123.093 C 312.561 122.744,312.506 123.030,312.506 123.729 M86.239 125.282 C 86.241 126.059,86.296 126.344,86.361 125.914 C 86.426 125.485,86.424 124.849,86.357 124.502 C 86.290 124.154,86.237 124.506,86.239 125.282 M302.043 125.424 C 302.043 125.968,302.101 126.190,302.172 125.918 C 302.243 125.646,302.243 125.201,302.172 124.929 C 302.101 124.657,302.043 124.880,302.043 125.424 M312.495 126.836 C 312.495 127.380,312.553 127.602,312.624 127.331 C 312.695 127.059,312.695 126.614,312.624 126.342 C 312.553 126.070,312.495 126.292,312.495 126.836 M75.772 127.119 C 75.772 127.662,75.830 127.885,75.901 127.613 C 75.972 127.341,75.972 126.896,75.901 126.624 C 75.830 126.352,75.772 126.575,75.772 127.119 M88.136 130.894 C 88.136 130.971,88.517 131.307,88.983 131.638 C 89.449 131.970,89.831 132.178,89.831 132.101 C 89.831 132.023,89.449 131.688,88.983 131.356 C 88.517 131.024,88.136 130.816,88.136 130.894 M349.914 137.433 C 349.656 137.975,349.502 138.418,349.574 138.418 C 349.767 138.418,350.624 136.688,350.495 136.559 C 350.434 136.498,350.172 136.891,349.914 137.433 M81.215 139.165 C 82.653 140.441,83.183 140.813,82.628 140.157 C 82.320 139.793,81.813 139.365,81.500 139.205 C 81.188 139.045,81.059 139.027,81.215 139.165 M305.911 140.042 L 305.226 140.819 306.073 140.113 C 306.540 139.725,306.974 139.375,307.039 139.336 C 307.103 139.297,307.030 139.266,306.876 139.266 C 306.722 139.266,306.287 139.615,305.911 140.042 M334.587 142.562 C 334.152 143.133,333.940 143.510,334.116 143.401 C 334.478 143.178,335.701 141.525,335.505 141.525 C 335.435 141.525,335.022 141.992,334.587 142.562 M54.520 143.309 C 54.520 143.357,54.933 143.770,55.438 144.227 L 56.356 145.056 55.526 144.138 C 54.753 143.283,54.520 143.090,54.520 143.309 M158.326 162.571 C 158.326 173.136,158.361 177.417,158.404 172.084 C 158.447 166.751,158.447 158.107,158.404 152.875 C 158.361 147.643,158.326 152.006,158.326 162.571 M229.873 155.579 C 229.913 162.221,229.979 170.643,230.020 174.294 C 230.062 177.945,230.125 172.511,230.161 162.218 C 230.197 151.924,230.131 143.503,230.014 143.503 C 229.898 143.503,229.834 148.937,229.873 155.579 M331.479 146.398 L 330.650 147.316 331.568 146.487 C 332.424 145.713,332.616 145.480,332.397 145.480 C 332.349 145.480,331.936 145.893,331.479 146.398 M57.627 146.796 C 57.627 146.951,57.977 147.385,58.404 147.761 L 59.181 148.446 58.475 147.599 C 58.086 147.133,57.737 146.698,57.698 146.634 C 57.659 146.569,57.627 146.642,57.627 146.796 M329.945 148.163 C 329.580 148.551,329.336 148.915,329.401 148.973 C 329.466 149.031,329.815 148.713,330.177 148.268 C 330.986 147.271,330.843 147.206,329.945 148.163 M59.040 148.676 C 59.040 148.725,59.453 149.138,59.958 149.594 L 60.876 150.424 60.046 149.506 C 59.273 148.650,59.040 148.458,59.040 148.676 M61.969 152.060 C 62.726 152.947,63.405 153.672,63.479 153.672 C 63.668 153.672,61.315 150.890,60.921 150.648 C 60.741 150.537,61.212 151.172,61.969 152.060 M340.519 152.048 L 339.689 152.966 340.607 152.136 C 341.463 151.363,341.655 151.130,341.437 151.130 C 341.388 151.130,340.975 151.543,340.519 152.048 M266.469 156.780 C 266.469 157.634,266.522 157.984,266.587 157.556 C 266.651 157.129,266.651 156.430,266.587 156.003 C 266.522 155.576,266.469 155.925,266.469 156.780 M121.832 157.203 C 121.834 157.980,121.889 158.264,121.954 157.835 C 122.019 157.406,122.017 156.770,121.950 156.423 C 121.883 156.075,121.830 156.427,121.832 157.203 M322.440 157.133 L 321.610 158.051 322.528 157.221 C 323.384 156.448,323.576 156.215,323.358 156.215 C 323.309 156.215,322.896 156.628,322.440 157.133 M53.107 157.998 C 53.107 158.047,53.520 158.460,54.025 158.916 L 54.944 159.746 54.114 158.828 C 53.340 157.972,53.107 157.780,53.107 157.998 M291.873 158.757 C 291.873 159.301,291.932 159.523,292.003 159.251 C 292.074 158.980,292.074 158.535,292.003 158.263 C 291.932 157.991,291.873 158.213,291.873 158.757 M68.079 159.410 C 68.079 159.459,68.492 159.872,68.997 160.329 L 69.915 161.158 69.086 160.240 C 68.312 159.384,68.079 159.192,68.079 159.410 M69.774 161.388 C 69.774 161.436,70.187 161.850,70.692 162.306 L 71.610 163.136 70.780 162.218 C 70.007 161.362,69.774 161.170,69.774 161.388 M113.774 164.042 C 114.126 164.109,114.634 164.107,114.904 164.036 C 115.175 163.965,114.887 163.910,114.266 163.913 C 113.644 163.916,113.423 163.974,113.774 164.042 M273.234 164.037 C 273.506 164.108,273.951 164.108,274.223 164.037 C 274.495 163.965,274.273 163.907,273.729 163.907 C 273.185 163.907,272.963 163.965,273.234 164.037 M72.881 164.875 C 72.881 165.030,73.231 165.464,73.658 165.841 L 74.435 166.525 73.729 165.678 C 73.340 165.212,72.991 164.778,72.952 164.713 C 72.913 164.648,72.881 164.721,72.881 164.875 M313.947 167.150 C 313.190 168.037,312.718 168.672,312.898 168.561 C 313.293 168.319,315.646 165.537,315.456 165.537 C 315.383 165.537,314.704 166.262,313.947 167.150 M287.412 168.997 L 286.582 169.915 287.500 169.086 C 288.005 168.629,288.418 168.216,288.418 168.167 C 288.418 167.949,288.185 168.141,287.412 168.997 M62.147 168.732 C 62.147 168.781,62.560 169.194,63.065 169.651 L 63.983 170.480 63.153 169.562 C 62.380 168.706,62.147 168.514,62.147 168.732 M100.847 169.015 C 100.847 169.064,101.261 169.477,101.766 169.933 L 102.684 170.763 101.854 169.845 C 101.081 168.989,100.847 168.797,100.847 169.015 M325.142 170.197 C 324.778 170.584,324.533 170.949,324.599 171.007 C 324.664 171.065,325.013 170.747,325.375 170.302 C 326.183 169.304,326.041 169.240,325.142 170.197 M78.814 172.122 C 78.814 172.171,79.227 172.584,79.732 173.040 L 80.650 173.870 79.820 172.952 C 79.047 172.096,78.814 171.904,78.814 172.122 M266.808 173.446 C 267.119 173.580,267.564 173.689,267.797 173.689 C 268.064 173.689,268.011 173.599,267.655 173.446 C 267.345 173.313,266.900 173.204,266.667 173.204 C 266.400 173.204,266.452 173.293,266.808 173.446 M66.949 174.197 C 66.949 174.352,67.299 174.786,67.726 175.163 L 68.503 175.847 67.797 175.000 C 67.408 174.534,67.059 174.100,67.020 174.035 C 66.981 173.970,66.949 174.043,66.949 174.197 M112.924 174.501 C 113.584 174.560,114.665 174.560,115.325 174.501 C 115.985 174.441,115.445 174.392,114.124 174.392 C 112.804 174.392,112.263 174.441,112.924 174.501 M272.536 174.501 C 273.200 174.561,274.217 174.560,274.796 174.499 C 275.374 174.438,274.831 174.390,273.588 174.391 C 272.345 174.392,271.871 174.441,272.536 174.501 M320.766 175.421 C 320.321 175.885,320.011 176.310,320.077 176.366 C 320.143 176.421,320.560 176.041,321.002 175.521 C 322.002 174.348,321.854 174.285,320.766 175.421 M81.921 175.610 C 81.921 175.764,82.270 176.198,82.698 176.575 L 83.475 177.260 82.768 176.412 C 82.380 175.946,82.030 175.512,81.992 175.447 C 81.953 175.383,81.921 175.456,81.921 175.610 M68.362 176.077 C 68.362 176.126,68.775 176.539,69.280 176.995 L 70.198 177.825 69.368 176.907 C 68.595 176.051,68.362 175.859,68.362 176.077 M317.638 179.167 L 316.808 180.085 317.726 179.255 C 318.582 178.482,318.774 178.249,318.556 178.249 C 318.507 178.249,318.094 178.662,317.638 179.167 M85.028 179.467 C 85.028 179.516,85.441 179.929,85.946 180.385 L 86.864 181.215 86.035 180.297 C 85.261 179.441,85.028 179.249,85.028 179.467 M266.186 181.356 C 266.186 182.210,266.239 182.560,266.304 182.133 C 266.369 181.706,266.369 181.006,266.304 180.579 C 266.239 180.152,266.186 180.501,266.186 181.356 M87.853 182.857 C 87.853 182.905,88.266 183.319,88.771 183.775 L 89.689 184.605 88.860 183.686 C 88.086 182.831,87.853 182.639,87.853 182.857 M74.576 183.422 C 74.576 183.470,74.989 183.883,75.494 184.340 L 76.412 185.169 75.583 184.251 C 74.809 183.396,74.576 183.203,74.576 183.422 M241.746 183.757 C 241.910 184.068,242.527 184.767,243.117 185.311 C 244.091 186.209,243.261 185.140,241.580 183.333 C 241.508 183.256,241.583 183.446,241.746 183.757 M89.548 184.834 C 89.548 184.883,89.961 185.296,90.466 185.752 L 91.384 186.582 90.554 185.664 C 89.781 184.808,89.548 184.616,89.548 184.834 M265.311 185.791 C 265.134 186.366,265.037 186.882,265.094 186.940 C 265.151 186.997,265.350 186.582,265.537 186.017 C 265.723 185.452,265.821 184.935,265.753 184.868 C 265.686 184.801,265.487 185.216,265.311 185.791 M311.705 186.229 L 310.876 187.147 311.794 186.317 C 312.650 185.544,312.842 185.311,312.623 185.311 C 312.575 185.311,312.162 185.724,311.705 186.229 M231.227 186.229 C 231.333 186.578,231.536 186.989,231.678 187.140 C 231.820 187.292,231.793 187.006,231.618 186.505 C 231.261 185.479,230.930 185.245,231.227 186.229 M309.888 188.276 C 309.524 188.664,309.279 189.028,309.344 189.086 C 309.410 189.144,309.759 188.826,310.120 188.381 C 310.929 187.384,310.787 187.319,309.888 188.276 M94.068 190.201 C 94.068 190.250,94.481 190.663,94.986 191.119 L 95.904 191.949 95.074 191.031 C 94.301 190.175,94.068 189.983,94.068 190.201 M153.380 192.302 L 151.836 193.927 153.460 192.383 C 154.969 190.948,155.214 190.678,155.004 190.678 C 154.960 190.678,154.229 191.409,153.380 192.302 M235.028 192.474 C 235.727 193.221,236.681 194.096,237.147 194.419 C 238.128 195.100,238.050 195.017,235.593 192.785 C 233.961 191.303,233.898 191.268,235.028 192.474 M305.368 193.643 C 305.004 194.031,304.759 194.395,304.825 194.453 C 304.890 194.511,305.239 194.194,305.601 193.748 C 306.409 192.751,306.267 192.686,305.368 193.643 M97.175 193.689 C 97.175 193.843,97.525 194.277,97.952 194.654 L 98.729 195.339 98.023 194.492 C 97.634 194.025,97.285 193.591,97.246 193.526 C 97.207 193.462,97.175 193.535,97.175 193.689 M83.616 194.156 C 83.616 194.205,84.029 194.618,84.534 195.074 L 85.452 195.904 84.622 194.986 C 83.849 194.130,83.616 193.938,83.616 194.156 M98.588 195.569 C 98.588 195.617,99.001 196.030,99.506 196.487 L 100.424 197.316 99.594 196.398 C 98.821 195.543,98.588 195.350,98.588 195.569 M134.181 196.880 C 134.414 197.037,134.848 197.168,135.146 197.171 C 135.869 197.177,135.643 197.015,134.605 196.783 C 133.986 196.644,133.871 196.670,134.181 196.880 M101.517 198.952 C 102.274 199.839,102.953 200.565,103.027 200.565 C 103.216 200.565,100.863 197.783,100.469 197.541 C 100.289 197.430,100.760 198.065,101.517 198.952 M300.849 199.010 C 300.484 199.398,300.240 199.763,300.305 199.820 C 300.370 199.878,300.719 199.561,301.081 199.115 C 301.890 198.118,301.747 198.054,300.849 199.010 M88.136 199.523 C 88.136 199.572,88.549 199.985,89.054 200.441 L 89.972 201.271 89.142 200.353 C 88.369 199.497,88.136 199.305,88.136 199.523 M103.107 200.936 C 103.107 200.984,103.520 201.398,104.025 201.854 L 104.944 202.684 104.114 201.766 C 103.340 200.910,103.107 200.718,103.107 200.936 M104.802 202.913 C 104.802 202.962,105.215 203.375,105.720 203.831 L 106.638 204.661 105.809 203.743 C 105.035 202.887,104.802 202.695,104.802 202.913 M92.655 204.891 C 92.655 204.939,93.069 205.352,93.573 205.809 L 94.492 206.638 93.662 205.720 C 92.888 204.865,92.655 204.672,92.655 204.891 M107.627 206.303 C 107.627 206.352,108.040 206.765,108.545 207.221 L 109.463 208.051 108.634 207.133 C 107.860 206.277,107.627 206.085,107.627 206.303 M95.585 208.274 C 96.342 209.161,97.021 209.887,97.095 209.887 C 97.284 209.887,94.931 207.105,94.537 206.863 C 94.356 206.752,94.828 207.387,95.585 208.274 M98.870 212.235 C 98.870 212.284,99.283 212.697,99.788 213.153 L 100.706 213.983 99.877 213.065 C 99.103 212.209,98.870 212.017,98.870 212.235 M113.842 213.648 C 113.842 213.696,114.255 214.109,114.760 214.566 L 115.678 215.395 114.848 214.477 C 114.075 213.622,113.842 213.429,113.842 213.648 M285.594 217.089 C 285.230 217.477,284.985 217.842,285.051 217.900 C 285.116 217.957,285.465 217.640,285.827 217.194 C 286.635 216.197,286.493 216.133,285.594 217.089 M116.949 217.135 C 116.949 217.289,117.299 217.724,117.726 218.100 L 118.503 218.785 117.797 217.938 C 117.408 217.472,117.059 217.037,117.020 216.973 C 116.981 216.908,116.949 216.981,116.949 217.135 M103.390 217.603 C 103.390 217.651,103.803 218.064,104.308 218.521 L 105.226 219.350 104.396 218.432 C 103.623 217.576,103.390 217.384,103.390 217.603 M121.291 222.398 C 122.048 223.286,122.727 224.011,122.801 224.011 C 122.990 224.011,120.637 221.229,120.243 220.987 C 120.063 220.876,120.535 221.511,121.291 222.398 M107.910 222.970 C 107.910 223.018,108.323 223.431,108.828 223.888 L 109.746 224.718 108.916 223.799 C 108.143 222.944,107.910 222.752,107.910 222.970 M265.943 224.082 L 265.113 225.000 266.031 224.170 C 266.536 223.714,266.949 223.301,266.949 223.252 C 266.949 223.034,266.716 223.226,265.943 224.082 M122.881 224.382 C 122.881 224.431,123.294 224.844,123.799 225.300 L 124.718 226.130 123.888 225.212 C 123.114 224.356,122.881 224.164,122.881 224.382 M111.017 226.457 C 111.017 226.612,111.367 227.046,111.794 227.423 L 112.571 228.107 111.864 227.260 C 111.476 226.794,111.126 226.359,111.088 226.295 C 111.049 226.230,111.017 226.303,111.017 226.457 M273.570 231.427 L 272.740 232.345 273.658 231.515 C 274.163 231.059,274.576 230.645,274.576 230.597 C 274.576 230.379,274.343 230.571,273.570 231.427 M129.823 232.513 C 130.278 233.071,130.707 233.480,130.776 233.422 C 130.846 233.363,130.474 232.906,129.950 232.406 L 128.996 231.497 129.823 232.513 M256.903 234.816 L 256.073 235.734 256.992 234.905 C 257.847 234.131,258.039 233.898,257.821 233.898 C 257.773 233.898,257.359 234.311,256.903 234.816 M131.921 235.117 C 131.921 235.165,132.334 235.578,132.839 236.035 L 133.757 236.864 132.927 235.946 C 132.154 235.091,131.921 234.898,131.921 235.117 M118.644 235.682 C 118.644 235.730,119.057 236.143,119.562 236.600 L 120.480 237.429 119.651 236.511 C 118.877 235.656,118.644 235.463,118.644 235.682 M136.546 240.478 C 137.302 241.365,137.982 242.090,138.055 242.090 C 138.245 242.090,135.892 239.309,135.497 239.066 C 135.317 238.955,135.789 239.591,136.546 240.478 M123.164 241.049 C 123.164 241.097,123.577 241.511,124.082 241.967 L 125.000 242.797 124.170 241.879 C 123.397 241.023,123.164 240.831,123.164 241.049 M138.136 242.461 C 138.136 242.510,138.549 242.923,139.054 243.379 L 139.972 244.209 139.142 243.291 C 138.369 242.435,138.136 242.243,138.136 242.461 M126.271 244.536 C 126.271 244.691,126.621 245.125,127.048 245.502 L 127.825 246.186 127.119 245.339 C 126.730 244.873,126.381 244.439,126.342 244.374 C 126.303 244.309,126.271 244.382,126.271 244.536 M247.864 245.551 L 247.034 246.469 247.952 245.639 C 248.457 245.183,248.870 244.770,248.870 244.721 C 248.870 244.503,248.637 244.695,247.864 245.551 M261.300 245.903 C 260.936 246.291,260.692 246.655,260.757 246.713 C 260.822 246.771,261.171 246.454,261.533 246.008 C 262.342 245.011,262.199 244.946,261.300 245.903 M246.169 247.528 L 245.339 248.446 246.257 247.617 C 246.762 247.160,247.175 246.747,247.175 246.699 C 247.175 246.480,246.942 246.672,246.169 247.528 M130.613 249.800 C 131.370 250.687,132.049 251.412,132.123 251.412 C 132.312 251.412,129.959 248.631,129.565 248.388 C 129.385 248.277,129.857 248.913,130.613 249.800 M145.585 251.212 C 146.342 252.099,147.021 252.825,147.095 252.825 C 147.284 252.825,144.931 250.043,144.537 249.800 C 144.356 249.690,144.828 250.325,145.585 251.212 M132.203 251.783 C 132.203 251.832,132.617 252.245,133.121 252.701 L 134.040 253.531 133.210 252.613 C 132.436 251.757,132.203 251.565,132.203 251.783 M241.649 252.895 L 240.819 253.814 241.737 252.984 C 242.242 252.528,242.655 252.114,242.655 252.066 C 242.655 251.848,242.422 252.040,241.649 252.895 M135.133 255.167 C 135.890 256.054,136.569 256.780,136.643 256.780 C 136.832 256.780,134.479 253.998,134.085 253.755 C 133.904 253.645,134.376 254.280,135.133 255.167 M237.129 258.263 L 236.299 259.181 237.218 258.351 C 237.722 257.895,238.136 257.482,238.136 257.433 C 238.136 257.215,237.903 257.407,237.129 258.263 M138.418 259.128 C 138.418 259.177,138.831 259.590,139.336 260.046 L 140.254 260.876 139.425 259.958 C 138.651 259.102,138.418 258.910,138.418 259.128 M235.567 260.099 C 234.357 261.448,233.806 262.147,233.952 262.147 C 234.029 262.147,234.628 261.511,235.283 260.734 C 236.543 259.241,236.748 258.783,235.567 260.099 M232.609 263.630 L 231.780 264.548 232.698 263.718 C 233.203 263.262,233.616 262.849,233.616 262.800 C 233.616 262.582,233.383 262.774,232.609 263.630 M142.938 264.495 C 142.938 264.544,143.351 264.957,143.856 265.413 L 144.774 266.243 143.944 265.325 C 143.171 264.469,142.938 264.277,142.938 264.495 M231.048 265.466 C 229.837 266.816,229.286 267.514,229.432 267.514 C 229.509 267.514,230.109 266.879,230.764 266.102 C 232.023 264.608,232.228 264.150,231.048 265.466 M145.194 267.092 C 146.318 268.447,146.413 268.535,146.106 267.935 C 145.946 267.622,145.517 267.115,145.153 266.807 C 144.515 266.267,144.516 266.277,145.194 267.092 M228.090 268.997 L 227.260 269.915 228.178 269.086 C 228.683 268.629,229.096 268.216,229.096 268.167 C 229.096 267.949,228.863 268.141,228.090 268.997 M147.458 269.862 C 147.458 269.911,147.871 270.324,148.376 270.780 L 149.294 271.610 148.464 270.692 C 147.691 269.836,147.458 269.644,147.458 269.862 M226.395 270.975 L 225.565 271.893 226.483 271.063 C 227.339 270.290,227.531 270.056,227.313 270.056 C 227.264 270.056,226.851 270.470,226.395 270.975 M150.387 273.246 C 151.144 274.133,151.823 274.859,151.897 274.859 C 152.086 274.859,149.733 272.077,149.339 271.834 C 149.159 271.724,149.631 272.359,150.387 273.246 M151.977 275.230 C 151.977 275.278,152.391 275.691,152.895 276.148 L 153.814 276.977 152.984 276.059 C 152.210 275.204,151.977 275.011,151.977 275.230 M221.875 276.342 L 221.045 277.260 221.963 276.430 C 222.468 275.974,222.881 275.561,222.881 275.512 C 222.881 275.294,222.648 275.486,221.875 276.342 M154.907 278.613 C 155.664 279.500,156.343 280.226,156.417 280.226 C 156.606 280.226,154.253 277.444,153.859 277.202 C 153.678 277.091,154.150 277.726,154.907 278.613 M217.355 281.709 L 216.525 282.627 217.444 281.797 C 217.948 281.341,218.362 280.928,218.362 280.879 C 218.362 280.661,218.128 280.853,217.355 281.709 M171.469 282.009 C 171.469 282.058,171.882 282.471,172.387 282.927 L 173.305 283.757 172.475 282.839 C 171.702 281.983,171.469 281.791,171.469 282.009 M158.192 282.574 C 158.192 282.623,158.605 283.036,159.110 283.492 L 160.028 284.322 159.199 283.404 C 158.425 282.548,158.192 282.356,158.192 282.574 M173.164 283.987 C 173.164 284.035,173.577 284.448,174.082 284.905 L 175.000 285.734 174.170 284.816 C 173.397 283.961,173.164 283.768,173.164 283.987 M214.142 285.430 L 213.171 286.582 214.269 285.532 C 214.873 284.955,215.310 284.436,215.240 284.380 C 215.170 284.324,214.676 284.797,214.142 285.430 M178.107 289.266 C 179.655 290.819,180.985 292.090,181.063 292.090 C 181.141 292.090,179.938 290.819,178.390 289.266 C 176.842 287.712,175.512 286.441,175.434 286.441 C 175.357 286.441,176.560 287.712,178.107 289.266 M210.586 289.336 L 208.616 291.384 210.664 289.414 C 212.566 287.585,212.841 287.288,212.634 287.288 C 212.591 287.288,211.669 288.210,210.586 289.336 M164.150 289.548 C 166.025 291.852,166.245 292.086,165.866 291.384 C 165.699 291.073,164.908 290.120,164.109 289.266 L 162.656 287.712 164.150 289.548 M224.982 289.054 L 224.153 289.972 225.071 289.142 C 225.576 288.686,225.989 288.273,225.989 288.224 C 225.989 288.006,225.756 288.198,224.982 289.054 M166.384 292.179 C 166.384 292.227,166.797 292.641,167.302 293.097 L 168.220 293.927 167.391 293.008 C 166.617 292.153,166.384 291.961,166.384 292.179 M206.693 292.806 C 206.257 293.189,206.013 293.503,206.150 293.503 C 206.287 293.503,206.697 293.185,207.062 292.797 C 207.906 291.898,207.720 291.902,206.693 292.806 M220.339 294.209 C 219.653 294.908,219.155 295.480,219.233 295.480 C 219.310 295.480,219.935 294.908,220.621 294.209 C 221.308 293.510,221.805 292.938,221.728 292.938 C 221.650 292.938,221.025 293.510,220.339 294.209 M215.819 298.729 C 215.133 299.428,214.635 300.000,214.713 300.000 C 214.791 300.000,215.416 299.428,216.102 298.729 C 216.788 298.030,217.286 297.458,217.208 297.458 C 217.130 297.458,216.505 298.030,215.819 298.729 M173.717 299.506 C 174.888 300.753,175.141 300.977,175.141 300.765 C 175.141 300.720,174.537 300.116,173.799 299.423 L 172.458 298.164 173.717 299.506 M209.463 303.992 C 207.967 305.112,207.510 305.632,208.757 304.795 C 210.295 303.763,211.117 303.105,210.843 303.127 C 210.706 303.137,210.085 303.527,209.463 303.992 M193.720 310.657 C 194.227 310.720,194.990 310.718,195.415 310.654 C 195.839 310.589,195.424 310.538,194.492 310.540 C 193.559 310.541,193.212 310.594,193.720 310.657 " stroke="none" fill="#9e9e9e" fill-rule="evenodd"></path><path id="path4" d="M110.664 11.499 C 111.013 11.566,111.585 11.566,111.935 11.499 C 112.285 11.431,111.999 11.376,111.299 11.376 C 110.600 11.376,110.314 11.431,110.664 11.499 M121.963 11.499 C 122.313 11.566,122.885 11.566,123.234 11.499 C 123.584 11.431,123.298 11.376,122.599 11.376 C 121.900 11.376,121.614 11.431,121.963 11.499 M265.752 11.499 C 266.103 11.567,266.612 11.564,266.882 11.494 C 267.152 11.423,266.864 11.368,266.243 11.371 C 265.621 11.374,265.400 11.432,265.752 11.499 M277.051 11.499 C 277.403 11.567,277.911 11.564,278.181 11.494 C 278.451 11.423,278.164 11.368,277.542 11.371 C 276.921 11.374,276.700 11.432,277.051 11.499 M107.560 11.782 C 107.911 11.849,108.420 11.847,108.690 11.776 C 108.960 11.705,108.672 11.650,108.051 11.653 C 107.429 11.656,107.208 11.714,107.560 11.782 M125.494 11.777 C 125.766 11.848,126.211 11.848,126.483 11.777 C 126.755 11.706,126.532 11.647,125.989 11.647 C 125.445 11.647,125.222 11.706,125.494 11.777 M262.500 11.777 C 262.772 11.848,263.217 11.848,263.489 11.777 C 263.761 11.706,263.538 11.647,262.994 11.647 C 262.451 11.647,262.228 11.706,262.500 11.777 M280.297 11.777 C 280.569 11.848,281.013 11.848,281.285 11.777 C 281.557 11.706,281.335 11.647,280.791 11.647 C 280.247 11.647,280.025 11.706,280.297 11.777 M251.836 13.559 C 251.480 13.712,251.428 13.802,251.695 13.802 C 251.928 13.802,252.373 13.693,252.684 13.559 C 253.040 13.406,253.092 13.317,252.825 13.317 C 252.592 13.317,252.147 13.426,251.836 13.559 M90.537 15.405 C 89.830 15.746,89.807 15.785,90.395 15.641 C 91.196 15.445,92.096 14.987,91.667 14.993 C 91.511 14.995,91.003 15.181,90.537 15.405 M109.820 21.669 C 110.171 21.736,110.680 21.734,110.950 21.663 C 111.220 21.592,110.932 21.537,110.311 21.540 C 109.689 21.543,109.468 21.601,109.820 21.669 M123.097 21.669 C 123.448 21.736,123.956 21.734,124.226 21.663 C 124.497 21.592,124.209 21.537,123.588 21.540 C 122.966 21.543,122.745 21.601,123.097 21.669 M264.904 21.669 C 265.256 21.736,265.764 21.734,266.034 21.663 C 266.304 21.592,266.017 21.537,265.395 21.540 C 264.774 21.543,264.553 21.601,264.904 21.669 M278.037 21.664 C 278.309 21.735,278.754 21.735,279.025 21.664 C 279.297 21.593,279.075 21.534,278.531 21.534 C 277.987 21.534,277.765 21.593,278.037 21.664 M107.133 21.946 C 107.405 22.017,107.850 22.017,108.121 21.946 C 108.393 21.875,108.171 21.817,107.627 21.817 C 107.083 21.817,106.861 21.875,107.133 21.946 M125.777 21.946 C 126.049 22.017,126.494 22.017,126.766 21.946 C 127.037 21.875,126.815 21.817,126.271 21.817 C 125.727 21.817,125.505 21.875,125.777 21.946 M262.218 21.946 C 262.489 22.017,262.934 22.017,263.206 21.946 C 263.478 21.875,263.256 21.817,262.712 21.817 C 262.168 21.817,261.946 21.875,262.218 21.946 M280.862 21.946 C 281.133 22.017,281.578 22.017,281.850 21.946 C 282.122 21.875,281.900 21.817,281.356 21.817 C 280.812 21.817,280.590 21.875,280.862 21.946 M222.669 26.582 C 222.009 27.049,221.469 27.495,221.469 27.571 C 221.469 27.648,222.041 27.317,222.740 26.836 C 223.439 26.355,224.011 25.904,224.011 25.834 C 224.011 25.639,223.958 25.669,222.669 26.582 M173.164 32.292 C 173.164 32.340,173.577 32.754,174.082 33.210 L 175.000 34.040 174.170 33.121 C 173.397 32.266,173.164 32.074,173.164 32.292 M213.400 33.969 L 212.571 34.887 213.489 34.057 C 213.994 33.601,214.407 33.188,214.407 33.139 C 214.407 32.921,214.174 33.113,213.400 33.969 M55.226 37.288 C 53.366 39.153,51.909 40.678,51.986 40.678 C 52.064 40.678,53.649 39.153,55.508 37.288 C 57.368 35.424,58.826 33.898,58.748 33.898 C 58.671 33.898,57.086 35.424,55.226 37.288 M333.192 37.006 C 334.896 38.715,336.353 40.113,336.431 40.113 C 336.509 40.113,335.178 38.715,333.475 37.006 C 331.771 35.297,330.313 33.898,330.236 33.898 C 330.158 33.898,331.488 35.297,333.192 37.006 M178.107 37.006 C 179.343 38.249,180.418 39.266,180.495 39.266 C 180.573 39.266,179.625 38.249,178.390 37.006 C 177.154 35.763,176.080 34.746,176.002 34.746 C 175.924 34.746,176.872 35.763,178.107 37.006 M161.864 35.672 C 161.864 35.734,162.659 36.397,163.630 37.146 C 164.601 37.894,165.172 38.253,164.900 37.944 C 164.384 37.359,161.864 35.473,161.864 35.672 M321.469 38.789 C 321.469 38.838,321.882 39.251,322.387 39.707 L 323.305 40.537 322.475 39.619 C 321.702 38.763,321.469 38.571,321.469 38.789 M181.638 40.819 C 182.165 41.363,182.660 41.808,182.738 41.808 C 182.816 41.808,182.448 41.363,181.921 40.819 C 181.394 40.275,180.899 39.831,180.821 39.831 C 180.744 39.831,181.111 40.275,181.638 40.819 M206.482 40.890 L 205.508 41.949 206.568 40.976 C 207.554 40.070,207.757 39.831,207.541 39.831 C 207.494 39.831,207.017 40.307,206.482 40.890 M64.252 41.596 L 63.136 42.797 64.336 41.680 C 64.996 41.066,65.537 40.526,65.537 40.479 C 65.537 40.266,65.291 40.480,64.252 41.596 M168.915 41.596 C 170.085 42.843,170.339 43.068,170.339 42.855 C 170.339 42.810,169.735 42.206,168.997 41.514 L 167.655 40.254 168.915 41.596 M326.695 43.785 C 328.399 45.494,329.856 46.893,329.934 46.893 C 330.012 46.893,328.681 45.494,326.977 43.785 C 325.274 42.076,323.816 40.678,323.738 40.678 C 323.661 40.678,324.991 42.076,326.695 43.785 M50.688 42.161 L 49.859 43.079 50.777 42.249 C 51.633 41.476,51.825 41.243,51.607 41.243 C 51.558 41.243,51.145 41.656,50.688 42.161 M217.225 43.715 L 214.831 46.186 217.302 43.792 C 218.662 42.474,219.774 41.362,219.774 41.320 C 219.774 41.114,219.450 41.419,217.225 43.715 M172.175 44.915 C 173.098 45.847,173.916 46.610,173.994 46.610 C 174.071 46.610,173.380 45.847,172.458 44.915 C 171.535 43.983,170.717 43.220,170.639 43.220 C 170.561 43.220,171.253 43.983,172.175 44.915 M59.589 46.257 L 58.616 47.316 59.675 46.343 C 60.661 45.437,60.864 45.198,60.649 45.198 C 60.601 45.198,60.125 45.674,59.589 46.257 M174.011 46.981 C 174.011 47.030,174.424 47.443,174.929 47.899 L 175.847 48.729 175.018 47.811 C 174.244 46.955,174.011 46.763,174.011 46.981 M329.944 47.264 C 329.944 47.312,330.357 47.725,330.862 48.182 L 331.780 49.011 330.950 48.093 C 330.177 47.237,329.944 47.045,329.944 47.264 M260.734 58.333 C 261.262 58.877,261.756 59.322,261.834 59.322 C 261.912 59.322,261.544 58.877,261.017 58.333 C 260.490 57.790,259.995 57.345,259.917 57.345 C 259.840 57.345,260.207 57.790,260.734 58.333 M126.682 59.110 L 125.565 60.311 126.766 59.194 C 127.882 58.156,128.096 57.910,127.882 57.910 C 127.836 57.910,127.296 58.450,126.682 59.110 M184.887 62.994 C 185.281 63.771,185.666 64.407,185.744 64.407 C 185.822 64.407,185.563 63.771,185.169 62.994 C 184.776 62.218,184.390 61.582,184.313 61.582 C 184.235 61.582,184.493 62.218,184.887 62.994 M252.825 65.060 C 252.825 65.109,253.238 65.522,253.743 65.978 L 254.661 66.808 253.831 65.890 C 253.058 65.034,252.825 64.842,252.825 65.060 M134.304 66.172 L 133.475 67.090 134.393 66.261 C 135.248 65.487,135.441 65.254,135.222 65.254 C 135.174 65.254,134.761 65.667,134.304 66.172 M122.382 68.644 C 122.382 69.188,122.440 69.410,122.511 69.138 C 122.582 68.867,122.582 68.422,122.511 68.150 C 122.440 67.878,122.382 68.100,122.382 68.644 M230.226 88.192 C 230.148 98.866,230.181 107.503,230.299 107.385 C 230.416 107.267,230.480 98.534,230.440 87.978 L 230.367 68.785 230.226 88.192 M240.467 70.480 C 240.470 71.102,240.528 71.323,240.595 70.971 C 240.663 70.620,240.660 70.111,240.590 69.841 C 240.519 69.571,240.464 69.859,240.467 70.480 M132.342 125.424 C 132.342 155.798,132.375 168.224,132.415 153.037 C 132.456 137.850,132.456 112.998,132.415 97.811 C 132.375 82.624,132.342 95.049,132.342 125.424 M189.779 74.153 C 190.087 74.769,191.136 75.783,191.808 76.112 C 192.041 76.227,191.914 76.063,191.526 75.748 C 191.139 75.433,190.523 74.818,190.160 74.381 C 189.782 73.929,189.619 73.830,189.779 74.153 M42.534 76.998 C 42.430 77.412,42.400 77.805,42.466 77.871 C 42.533 77.938,42.673 77.654,42.776 77.240 C 42.880 76.826,42.911 76.433,42.844 76.366 C 42.778 76.299,42.638 76.584,42.534 76.998 M356.254 76.554 C 356.254 76.787,356.364 77.232,356.497 77.542 C 356.650 77.898,356.740 77.951,356.740 77.684 C 356.740 77.451,356.631 77.006,356.497 76.695 C 356.344 76.339,356.254 76.287,356.254 76.554 M119.350 77.401 C 119.661 77.535,120.106 77.644,120.339 77.644 C 120.606 77.644,120.554 77.554,120.198 77.401 C 119.887 77.268,119.442 77.158,119.209 77.158 C 118.942 77.158,118.994 77.248,119.350 77.401 M269.068 77.401 C 268.712 77.554,268.659 77.644,268.927 77.644 C 269.160 77.644,269.605 77.535,269.915 77.401 C 270.271 77.248,270.324 77.158,270.056 77.158 C 269.823 77.158,269.379 77.268,269.068 77.401 M286.429 81.427 C 287.122 82.165,287.725 82.768,287.771 82.768 C 287.983 82.768,287.759 82.515,286.511 81.344 L 285.169 80.085 286.429 81.427 M101.103 82.133 C 99.988 83.305,98.545 85.085,99.329 84.322 C 100.170 83.503,102.607 80.791,102.502 80.791 C 102.435 80.791,101.805 81.395,101.103 82.133 M30.009 90.395 C 30.009 90.939,30.067 91.162,30.138 90.890 C 30.209 90.618,30.209 90.173,30.138 89.901 C 30.067 89.629,30.009 89.852,30.009 90.395 M39.921 93.220 C 39.921 94.230,39.972 94.643,40.035 94.138 C 40.098 93.633,40.098 92.807,40.035 92.302 C 39.972 91.797,39.921 92.210,39.921 93.220 M291.591 92.655 C 291.591 93.199,291.649 93.422,291.720 93.150 C 291.791 92.878,291.791 92.433,291.720 92.161 C 291.649 91.889,291.591 92.112,291.591 92.655 M29.754 93.927 C 29.755 95.014,29.806 95.424,29.867 94.838 C 29.928 94.252,29.927 93.362,29.865 92.861 C 29.802 92.359,29.752 92.839,29.754 93.927 M266.182 93.927 C 266.185 94.703,266.239 94.988,266.304 94.558 C 266.369 94.129,266.368 93.493,266.301 93.146 C 266.233 92.798,266.180 93.150,266.182 93.927 M348.970 95.056 C 348.969 96.455,349.017 97.062,349.076 96.407 C 349.136 95.751,349.136 94.607,349.078 93.864 C 349.020 93.122,348.971 93.658,348.970 95.056 M106.634 125.282 C 106.634 142.839,106.668 149.980,106.709 141.151 C 106.750 132.322,106.750 117.957,106.709 109.230 C 106.668 100.502,106.634 107.726,106.634 125.282 M122.111 94.915 C 122.111 95.614,122.166 95.900,122.233 95.551 C 122.301 95.201,122.301 94.629,122.233 94.280 C 122.166 93.930,122.111 94.216,122.111 94.915 M281.775 125.706 C 281.775 143.340,281.809 150.554,281.850 141.737 C 281.892 132.920,281.892 118.492,281.850 109.675 C 281.809 100.858,281.775 108.072,281.775 125.706 M96.450 100.989 C 96.450 104.718,96.490 106.204,96.539 104.292 C 96.588 102.380,96.588 99.329,96.538 97.512 C 96.489 95.695,96.449 97.260,96.450 100.989 M291.929 101.130 C 291.929 104.781,291.970 106.275,292.019 104.449 C 292.068 102.624,292.068 99.636,292.019 97.811 C 291.970 95.985,291.929 97.479,291.929 101.130 M348.969 101.977 C 348.969 103.298,349.017 103.838,349.077 103.178 C 349.136 102.518,349.136 101.437,349.077 100.777 C 349.017 100.117,348.969 100.657,348.969 101.977 M29.754 102.966 C 29.755 104.054,29.806 104.464,29.867 103.878 C 29.928 103.292,29.927 102.402,29.865 101.900 C 29.802 101.399,29.752 101.879,29.754 102.966 M39.918 103.814 C 39.920 104.746,39.972 105.093,40.035 104.585 C 40.098 104.078,40.097 103.315,40.032 102.890 C 39.968 102.466,39.916 102.881,39.918 103.814 M30.009 106.497 C 30.009 107.041,30.067 107.263,30.138 106.992 C 30.209 106.720,30.209 106.275,30.138 106.003 C 30.067 105.731,30.009 105.953,30.009 106.497 M80.349 113.065 L 79.520 113.983 80.438 113.153 C 80.943 112.697,81.356 112.284,81.356 112.235 C 81.356 112.017,81.123 112.209,80.349 113.065 M94.853 117.714 L 96.345 117.827 96.266 125.580 C 96.222 129.845,96.284 133.334,96.403 133.334 C 96.522 133.333,96.585 129.806,96.544 125.494 L 96.469 117.655 94.915 117.628 L 93.362 117.601 94.853 117.714 M194.209 117.795 L 230.085 117.938 230.085 125.609 C 230.085 129.828,230.180 133.221,230.297 133.149 C 230.674 132.915,230.552 118.235,230.169 117.853 C 229.909 117.592,221.587 117.530,194.082 117.583 L 158.333 117.652 194.209 117.795 M293.012 117.717 C 293.442 117.782,294.077 117.780,294.425 117.713 C 294.772 117.646,294.421 117.593,293.644 117.595 C 292.867 117.597,292.583 117.652,293.012 117.717 M291.867 125.336 C 291.835 129.561,291.903 133.077,292.020 133.149 C 292.136 133.221,292.199 130.972,292.159 128.151 C 292.024 118.576,291.926 117.634,291.867 125.336 M299.435 119.297 C 299.435 119.346,299.848 119.759,300.353 120.216 L 301.271 121.045 300.441 120.127 C 299.668 119.271,299.435 119.079,299.435 119.297 M312.224 123.446 C 312.224 124.145,312.279 124.431,312.346 124.082 C 312.414 123.732,312.414 123.160,312.346 122.811 C 312.279 122.461,312.224 122.747,312.224 123.446 M312.218 126.977 C 312.221 127.599,312.279 127.820,312.347 127.468 C 312.414 127.117,312.412 126.609,312.341 126.339 C 312.270 126.068,312.215 126.356,312.218 126.977 M36.743 132.627 C 36.743 132.782,36.925 133.227,37.147 133.616 C 37.369 134.004,37.551 134.195,37.551 134.040 C 37.551 133.884,37.369 133.439,37.147 133.051 C 36.925 132.662,36.743 132.472,36.743 132.627 M308.316 137.195 C 307.881 137.766,307.669 138.143,307.845 138.034 C 308.207 137.811,309.430 136.158,309.234 136.158 C 309.164 136.158,308.751 136.625,308.316 137.195 M91.882 143.423 C 92.312 143.488,92.947 143.486,93.295 143.419 C 93.642 143.352,93.291 143.299,92.514 143.301 C 91.737 143.303,91.453 143.358,91.882 143.423 M295.272 143.423 C 295.702 143.488,296.337 143.486,296.685 143.419 C 297.032 143.352,296.681 143.299,295.904 143.301 C 295.127 143.303,294.843 143.358,295.272 143.423 M96.449 150.000 C 96.449 153.651,96.489 155.145,96.539 153.319 C 96.588 151.494,96.588 148.506,96.539 146.681 C 96.489 144.855,96.449 146.349,96.449 150.000 M230.359 162.429 C 230.359 172.917,230.395 177.207,230.438 171.963 C 230.481 166.720,230.481 158.139,230.438 152.895 C 230.395 147.652,230.359 151.942,230.359 162.429 M291.929 150.000 C 291.929 153.651,291.970 155.145,292.019 153.319 C 292.068 151.494,292.068 148.506,292.019 146.681 C 291.970 144.855,291.929 146.349,291.929 150.000 M55.650 145.004 C 55.650 145.052,56.063 145.465,56.568 145.922 L 57.486 146.751 56.656 145.833 C 55.883 144.978,55.650 144.785,55.650 145.004 M122.115 156.356 C 122.117 157.133,122.172 157.417,122.237 156.988 C 122.302 156.558,122.300 155.923,122.233 155.575 C 122.166 155.228,122.113 155.579,122.115 156.356 M266.179 156.780 C 266.179 157.479,266.234 157.765,266.301 157.415 C 266.368 157.066,266.368 156.494,266.301 156.144 C 266.234 155.794,266.179 156.081,266.179 156.780 M291.591 159.040 C 291.591 159.583,291.649 159.806,291.720 159.534 C 291.791 159.262,291.791 158.817,291.720 158.545 C 291.649 158.273,291.591 158.496,291.591 159.040 M108.192 161.388 C 108.192 161.436,108.605 161.850,109.110 162.306 L 110.028 163.136 109.199 162.218 C 108.425 161.362,108.192 161.170,108.192 161.388 M315.095 166.172 L 314.266 167.090 315.184 166.261 C 316.039 165.487,316.232 165.254,316.013 165.254 C 315.965 165.254,315.552 165.667,315.095 166.172 M328.090 166.455 L 327.260 167.373 328.178 166.543 C 329.034 165.770,329.226 165.537,329.008 165.537 C 328.959 165.537,328.546 165.950,328.090 166.455 M100.000 167.514 C 100.332 167.980,100.667 168.362,100.745 168.362 C 100.822 168.362,100.614 167.980,100.282 167.514 C 99.951 167.048,99.615 166.667,99.538 166.667 C 99.460 166.667,99.668 167.048,100.000 167.514 M101.695 169.633 C 102.222 170.177,102.717 170.621,102.794 170.621 C 102.872 170.621,102.504 170.177,101.977 169.633 C 101.450 169.089,100.956 168.644,100.878 168.644 C 100.800 168.644,101.168 169.089,101.695 169.633 M325.166 169.882 L 324.484 170.763 325.292 169.994 C 325.736 169.572,326.043 169.176,325.974 169.114 C 325.904 169.052,325.541 169.397,325.166 169.882 M111.935 174.206 C 112.207 174.277,112.652 174.277,112.924 174.206 C 113.196 174.135,112.973 174.077,112.429 174.077 C 111.886 174.077,111.663 174.135,111.935 174.206 M271.257 174.206 C 271.529 174.277,271.974 174.277,272.246 174.206 C 272.518 174.135,272.295 174.077,271.751 174.077 C 271.208 174.077,270.985 174.135,271.257 174.206 M306.056 176.907 L 305.226 177.825 306.144 176.995 C 307.000 176.222,307.192 175.989,306.974 175.989 C 306.925 175.989,306.512 176.402,306.056 176.907 M157.975 181.073 C 157.975 181.617,158.033 181.840,158.104 181.568 C 158.175 181.296,158.175 180.851,158.104 180.579 C 158.033 180.307,157.975 180.530,157.975 181.073 M254.115 184.675 C 253.504 185.455,253.455 185.586,253.929 185.173 C 254.495 184.678,255.242 183.616,255.024 183.616 C 254.980 183.616,254.571 184.093,254.115 184.675 M76.271 185.117 C 76.271 185.165,76.684 185.578,77.189 186.035 L 78.107 186.864 77.278 185.946 C 76.504 185.091,76.271 184.898,76.271 185.117 M153.390 191.949 C 152.704 192.648,152.206 193.220,152.283 193.220 C 152.361 193.220,152.986 192.648,153.672 191.949 C 154.358 191.250,154.856 190.678,154.779 190.678 C 154.701 190.678,154.076 191.250,153.390 191.949 M235.581 192.726 C 236.274 193.464,236.878 194.068,236.923 194.068 C 237.135 194.068,236.911 193.814,235.664 192.644 L 234.322 191.384 235.581 192.726 M138.630 197.382 C 139.290 197.441,140.371 197.441,141.031 197.382 C 141.691 197.323,141.151 197.274,139.831 197.274 C 138.510 197.274,137.970 197.323,138.630 197.382 M246.689 197.383 C 247.432 197.442,248.576 197.441,249.232 197.382 C 249.887 197.322,249.280 197.275,247.881 197.275 C 246.483 197.276,245.947 197.325,246.689 197.383 M280.067 207.698 L 279.237 208.616 280.155 207.786 C 280.660 207.330,281.073 206.917,281.073 206.868 C 281.073 206.650,280.840 206.842,280.067 207.698 M273.852 215.042 L 273.023 215.960 273.941 215.131 C 274.446 214.674,274.859 214.261,274.859 214.213 C 274.859 213.994,274.626 214.187,273.852 215.042 M271.027 218.432 L 270.198 219.350 271.116 218.521 C 271.621 218.064,272.034 217.651,272.034 217.603 C 272.034 217.384,271.801 217.576,271.027 218.432 M264.813 225.777 L 263.983 226.695 264.901 225.865 C 265.406 225.409,265.819 224.996,265.819 224.947 C 265.819 224.729,265.586 224.921,264.813 225.777 M277.807 226.059 L 276.977 226.977 277.895 226.148 C 278.751 225.374,278.943 225.141,278.725 225.141 C 278.677 225.141,278.263 225.554,277.807 226.059 M255.773 236.511 L 254.944 237.429 255.862 236.600 C 256.367 236.143,256.780 235.730,256.780 235.682 C 256.780 235.463,256.547 235.656,255.773 236.511 M249.559 243.856 L 248.729 244.774 249.647 243.944 C 250.152 243.488,250.565 243.075,250.565 243.026 C 250.565 242.808,250.332 243.000,249.559 243.856 M262.553 244.138 L 261.723 245.056 262.641 244.227 C 263.146 243.770,263.559 243.357,263.559 243.309 C 263.559 243.090,263.326 243.283,262.553 244.138 M240.519 254.590 L 239.689 255.508 240.607 254.679 C 241.112 254.222,241.525 253.809,241.525 253.761 C 241.525 253.542,241.292 253.735,240.519 254.590 M235.999 259.958 L 235.169 260.876 236.088 260.046 C 236.593 259.590,237.006 259.177,237.006 259.128 C 237.006 258.910,236.773 259.102,235.999 259.958 M141.808 262.800 C 141.808 262.849,142.221 263.262,142.726 263.718 L 143.644 264.548 142.814 263.630 C 142.041 262.774,141.808 262.582,141.808 262.800 M231.479 265.325 L 230.650 266.243 231.568 265.413 C 232.073 264.957,232.486 264.544,232.486 264.495 C 232.486 264.277,232.253 264.469,231.479 265.325 M229.784 267.302 L 228.955 268.220 229.873 267.391 C 230.378 266.934,230.791 266.521,230.791 266.473 C 230.791 266.254,230.558 266.446,229.784 267.302 M225.265 272.669 L 224.435 273.588 225.353 272.758 C 225.858 272.302,226.271 271.888,226.271 271.840 C 226.271 271.622,226.038 271.814,225.265 272.669 M150.847 273.535 C 150.847 273.583,151.261 273.996,151.766 274.453 L 152.684 275.282 151.854 274.364 C 151.081 273.509,150.847 273.316,150.847 273.535 M220.745 278.037 L 219.915 278.955 220.833 278.125 C 221.689 277.352,221.881 277.119,221.663 277.119 C 221.614 277.119,221.201 277.532,220.745 278.037 M172.881 283.987 C 172.881 284.035,173.294 284.448,173.799 284.905 L 174.718 285.734 173.888 284.816 C 173.114 283.961,172.881 283.768,172.881 283.987 M214.530 285.381 L 213.701 286.299 214.619 285.470 C 215.124 285.013,215.537 284.600,215.537 284.552 C 215.537 284.333,215.304 284.526,214.530 285.381 M177.825 289.266 C 179.217 290.664,180.419 291.808,180.497 291.808 C 180.574 291.808,179.499 290.664,178.107 289.266 C 176.716 287.867,175.513 286.723,175.436 286.723 C 175.358 286.723,176.433 287.867,177.825 289.266 M210.452 289.689 C 209.295 290.855,208.411 291.808,208.489 291.808 C 208.566 291.808,209.577 290.855,210.734 289.689 C 211.892 288.524,212.775 287.571,212.698 287.571 C 212.620 287.571,211.609 288.524,210.452 289.689 M224.700 289.054 L 223.870 289.972 224.788 289.142 C 225.293 288.686,225.706 288.273,225.706 288.224 C 225.706 288.006,225.473 288.198,224.700 289.054 M167.502 293.008 C 168.673 294.256,168.927 294.480,168.927 294.268 C 168.927 294.223,168.323 293.619,167.585 292.926 L 166.243 291.667 167.502 293.008 M220.329 293.997 L 218.785 295.621 220.410 294.077 C 221.919 292.643,222.163 292.373,221.954 292.373 C 221.909 292.373,221.179 293.104,220.329 293.997 M184.746 295.301 C 184.746 295.378,185.127 295.713,185.593 296.045 C 186.059 296.377,186.441 296.585,186.441 296.507 C 186.441 296.430,186.059 296.095,185.593 295.763 C 185.127 295.431,184.746 295.223,184.746 295.301 M215.537 298.729 C 214.851 299.428,214.353 300.000,214.430 300.000 C 214.508 300.000,215.133 299.428,215.819 298.729 C 216.505 298.030,217.003 297.458,216.926 297.458 C 216.848 297.458,216.223 298.030,215.537 298.729 M173.870 299.435 C 174.477 300.056,175.037 300.565,175.115 300.565 C 175.192 300.565,174.759 300.056,174.153 299.435 C 173.546 298.814,172.986 298.305,172.908 298.305 C 172.830 298.305,173.263 298.814,173.870 299.435 " stroke="none" fill="#747474" fill-rule="evenodd"></path></g></svg>